<svg xmlns="http://www.w3.org/2000/svg" version="1.1" viewBox="81.46 411 921.54 242">
<path d="M0 0 C2.15613145 1.79612402 4.14413099 3.63870181 6.078125 5.671875 C7.94725925 7.25571721 7.94725925 7.25571721 10.4453125 6.8515625 C13.02917707 5.99027431 15.2420932 4.93998201 17.625 3.625 C30.49242563 -2.86514889 45.77135762 -4.30647095 59.875 -0.9375 C72.81087423 3.44204363 85.30749843 10.29837708 93 22 C93 22.66 93 23.32 93 24 C85.93108148 23.11063498 80.68191456 20.93009882 74.5234375 17.40234375 C67.95726945 13.75334324 62.19571858 13.4236975 55 15 C42.9474173 18.8879299 33.6645706 24.95401165 27.77734375 36.37109375 C21.99908803 48.98384548 22.03916954 65.39834662 26.08203125 78.58984375 C30.26392434 89.56953753 35.4070397 94.89032334 45.9765625 99.9453125 C55.71241525 104.07203198 65.17558968 103.49702224 75 100 C80.09609925 97.86788201 85.05783908 95.46432888 90 93 C90 96 90 96 88.5 97.5625 C88.005 98.036875 87.51 98.51125 87 99 C87 99.66 87 100.32 87 101 C73.7101537 112.80546556 57.95683614 118.99184991 40.09375 118.34765625 C28.96355737 117.60969909 16.06621158 114.06621158 8 106 C4.13273235 106.32926653 1.62281065 107.68356987 -1.5625 109.8125 C-14.83379297 118.0649034 -30.9072146 120.13948445 -46.10693359 116.92211914 C-54.55412877 114.89360687 -61.52145114 111.43902169 -69 107 C-70.32623288 106.31931756 -71.65658831 105.64611705 -73 105 C-73.72703125 105.53109375 -74.4540625 106.0621875 -75.203125 106.609375 C-88.13967039 115.6981274 -102.10609966 120.05106786 -118.03417969 117.69970703 C-134.89597999 114.54965628 -147.34148436 106.90930626 -157.17578125 92.84375 C-164.15608801 81.96224396 -166.37897473 72.79355204 -166.4375 59.9375 C-166.47037109 58.69033203 -166.50324219 57.44316406 -166.53710938 56.15820312 C-166.61002039 43.41203249 -162.69291422 33.08449377 -155 23 C-154.37738281 22.11441406 -154.37738281 22.11441406 -153.7421875 21.2109375 C-146.27368805 11.41691726 -133.05196083 3.92462816 -121.15234375 1.39453125 C-104.43508449 -0.69771557 -88.85613264 1.83337013 -75 12 C-70.86940326 15.87421487 -67.39190201 19.37008794 -66.76171875 25.20703125 C-66.34189662 39.94499753 -72.65193509 56.52605117 -82 68 C-83.485 67.505 -83.485 67.505 -85 67 C-84.79503906 66.33613281 -84.59007812 65.67226563 -84.37890625 64.98828125 C-84.10949219 64.10527344 -83.84007812 63.22226562 -83.5625 62.3125 C-83.29566406 61.44238281 -83.02882813 60.57226562 -82.75390625 59.67578125 C-80.17887448 50.5364198 -79.84840565 41.72169619 -84 33 C-88.08759097 26.81021939 -93.16393779 24.2786874 -100 22 C-112.59797379 21.10014473 -125.19037046 21.88491119 -135.29296875 30.37109375 C-143.96578776 38.64698741 -148.77001119 47.68545321 -149.0703125 59.84765625 C-148.58232348 70.74129351 -144.88040196 82.18827256 -137 90 C-128.59498856 96.99240448 -121.05357964 100.71022749 -110.03125 100.41796875 C-99.56499524 98.97481249 -92.09150774 91.55829551 -85.61328125 83.76953125 C-84 82 -84 82 -81 80 C-81.64544429 83.48539917 -83.10134397 86.02819057 -85 89 C-84.34 88.835 -83.68 88.67 -83 88.5 C-75.48400706 87.24733451 -70.3545819 87.73137868 -64 92 C-63.195625 92.825 -62.39125 93.65 -61.5625 94.5 C-56.13977311 99.79046526 -50.5599109 101.26366857 -43.0625 101.5 C-29.74436549 101.05701484 -17.81042906 93.74831404 -8.78125 84.1640625 C-0.66741351 74.30646291 2.69499109 64.57777847 2.4140625 51.859375 C1.45424842 42.91318339 -1.94575885 33.87595032 -9 28 C-17.03797211 22.20518289 -26.23227395 18.69966752 -35.5 15.375 C-38.51061866 14.19225695 -40.67681393 13.22638665 -43 11 C-43 10.34 -43 9.68 -43 9 C-31.22958416 -1.33827399 -15.013107 -8.2899699 0 0 Z " fill="#000000" transform="translate(248,512)"/>
<path d="M0 0 C6.55875 -0.0825 13.1175 -0.165 19.875 -0.25 C22.94917236 -0.30462402 22.94917236 -0.30462402 26.08544922 -0.36035156 C46.03090595 -0.56889363 46.03090595 -0.56889363 52.65209961 5.51904297 C57.32210291 10.83655754 57.33450604 14.92708801 57.2890625 21.7890625 C56.77341195 27.51696459 53.96039603 30.07364749 50 34 C50.54269531 34.36351562 51.08539063 34.72703125 51.64453125 35.1015625 C56.10417999 38.23536972 59.36975549 40.59981507 61 46 C61.65232774 52.23438936 61.76245338 57.73256527 58 63 C52.61864901 68.38135099 46.6907224 71.09536603 39.05273438 71.34057617 C37.23300387 71.33983684 35.41322139 71.32368563 33.59375 71.29296875 C32.7368457 71.28994751 31.87994141 71.28692627 30.99707031 71.28381348 C27.83125566 71.26825355 24.66561425 71.22637073 21.5 71.1875 C14.405 71.125625 7.31 71.06375 0 71 C0 47.57 0 24.14 0 0 Z M11 9 C11 16.26 11 23.52 11 31 C14.83376642 31.08137712 18.66578329 31.14068689 22.5 31.1875 C24.11648438 31.22520508 24.11648438 31.22520508 25.765625 31.26367188 C32.77207105 31.32775522 39.59905736 31.29123482 44.9375 26.125 C47.00799605 21.98400791 47.26749718 19.91263743 45.9375 15.375 C43.63843779 11.37018196 42.22604013 10.68206072 38 9 C34.8176621 8.59232878 34.8176621 8.59232878 31.5078125 8.70703125 C30.30898438 8.71669922 29.11015625 8.72636719 27.875 8.73632812 C26.6375 8.76146484 25.4 8.78660156 24.125 8.8125 C22.86429687 8.82603516 21.60359375 8.83957031 20.3046875 8.85351562 C17.20294093 8.88876275 14.10141508 8.94256639 11 9 Z M11 40 C11 47.26 11 54.52 11 62 C15.1632304 62.06913113 19.32444445 62.1287798 23.48779297 62.16479492 C24.90192437 62.17981825 26.31600968 62.20024305 27.72998047 62.22631836 C29.77062397 62.26298954 31.81064792 62.27979036 33.8515625 62.29296875 C35.68968506 62.31653442 35.68968506 62.31653442 37.56494141 62.34057617 C42.14287362 61.88668737 45.45827447 60.38755298 48.875 57.3125 C50.53768709 53.89475432 50.6581974 50.67859211 50 47 C47.60612481 42.92154597 45.44172138 41.39693359 41 40 C37.61321072 39.72583754 37.61321072 39.72583754 33.94921875 39.8046875 C33.29041214 39.8075174 32.63160553 39.81034729 31.95283508 39.81326294 C29.86419938 39.82439076 27.77600444 39.84948052 25.6875 39.875 C24.26498018 39.88503941 22.8424536 39.89416358 21.41992188 39.90234375 C17.94631127 39.92259804 14.47364461 39.96175804 11 40 Z " fill="#000000" transform="translate(426,415)"/>
<path d="M0 0 C9.4376652 6.91190157 15.03582536 14.35341149 17.55859375 25.78515625 C18.93508589 35.81040429 17.34751161 45.83182997 11.4609375 54.18359375 C5.531298 61.34519031 -1.62712576 67.43785429 -11 69 C-22.9909264 70.0362529 -34.45939157 69.66672249 -44.12109375 61.72265625 C-53.3114917 53.29653256 -57.50204149 44.87849338 -58.09375 32.3046875 C-57.79734928 21.85656197 -54.26487226 13.59809203 -47.1484375 6.03125 C-35.12933668 -5.26957786 -14.5419871 -8.48851516 0 0 Z M-41 14 C-45.72181152 21.75451973 -48.30304146 29.24185276 -46.5390625 38.390625 C-44.55791803 45.98889675 -41.16990947 51.49048834 -35 56.375 C-27.56828037 60.4005148 -20.01549784 61.21124237 -11.69140625 59.53515625 C-4.42027899 57.13979464 0.37582874 52.67515927 3.875 45.9375 C7.77255113 37.76812958 7.82834544 30.04064559 5.03515625 21.4921875 C2.01938622 14.23157891 -2.91433781 9.34202286 -10 6 C-21.30782111 2.34778449 -32.89835418 5.53009755 -41 14 Z " fill="#000000" transform="translate(478,560)"/>
<path d="M0 0 C6.65918098 7.2933887 8.30166835 14.09674543 8.15283203 23.74804688 C7.8821246 29.53522771 6.89858915 33.14648233 3.625 37.875 C3.08875 38.761875 2.5525 39.64875 2 40.5625 C-4.23805121 46.63639197 -12.39075002 49.19629084 -20.9296875 49.09765625 C-27.00488901 48.54448295 -31.52875832 46.50968126 -36.375 42.875 C-36.705 51.125 -37.035 59.375 -37.375 67.875 C-40.675 67.875 -43.975 67.875 -47.375 67.875 C-47.375 43.785 -47.375 19.695 -47.375 -5.125 C-44.075 -5.125 -40.775 -5.125 -37.375 -5.125 C-37.045 -3.145 -36.715 -1.165 -36.375 0.875 C-35.529375 0.09125 -34.68375 -0.6925 -33.8125 -1.5 C-23.63819369 -9.89142553 -10.19782994 -6.42085589 0 0 Z M-33.25 8.75 C-37.09871092 14.409869 -38.29296703 19.07524419 -37.375 25.875 C-35.65570139 31.15371142 -33.16075998 34.91238668 -28.375 37.875 C-23.28268413 40.30542348 -18.75866877 40.19916988 -13.375 38.875 C-8.05167094 36.16311538 -4.79442177 32.54183958 -2.625 26.9375 C-1.86608716 20.67646911 -2.27244014 15.40615541 -5.375 9.875 C-9.22825407 5.37385365 -13.9507217 3.32556293 -19.75 2.5625 C-25.05298493 3.19380773 -29.66730951 4.63732571 -33.25 8.75 Z " fill="#000000" transform="translate(616.375,580.125)"/>
<path d="M0 0 C6.65918098 7.2933887 8.30166835 14.09674543 8.15283203 23.74804688 C7.8821246 29.53522771 6.89858915 33.14648233 3.625 37.875 C3.08875 38.761875 2.5525 39.64875 2 40.5625 C-4.23805121 46.63639197 -12.39075002 49.19629084 -20.9296875 49.09765625 C-27.00488901 48.54448295 -31.52875832 46.50968126 -36.375 42.875 C-36.705 51.125 -37.035 59.375 -37.375 67.875 C-40.675 67.875 -43.975 67.875 -47.375 67.875 C-47.375 43.785 -47.375 19.695 -47.375 -5.125 C-44.075 -5.125 -40.775 -5.125 -37.375 -5.125 C-37.045 -3.145 -36.715 -1.165 -36.375 0.875 C-35.529375 0.09125 -34.68375 -0.6925 -33.8125 -1.5 C-23.63819369 -9.89142553 -10.19782994 -6.42085589 0 0 Z M-33.25 8.75 C-37.09871092 14.409869 -38.29296703 19.07524419 -37.375 25.875 C-35.65570139 31.15371142 -33.16075998 34.91238668 -28.375 37.875 C-23.28268413 40.30542348 -18.75866877 40.19916988 -13.375 38.875 C-8.05167094 36.16311538 -4.79442177 32.54183958 -2.625 26.9375 C-1.86608716 20.67646911 -2.27244014 15.40615541 -5.375 9.875 C-9.22825407 5.37385365 -13.9507217 3.32556293 -19.75 2.5625 C-25.05298493 3.19380773 -29.66730951 4.63732571 -33.25 8.75 Z " fill="#000000" transform="translate(551.375,580.125)"/>
<path d="M0 0 C3.63 0 7.26 0 11 0 C11 4.29 11 8.58 11 13 C15.95 13 20.9 13 26 13 C26 15.97 26 18.94 26 22 C21.05 22 16.1 22 11 22 C11.05103569 26.50389934 11.11392329 31.00432893 11.20751953 35.50708008 C11.23573878 37.03854178 11.25694869 38.57014939 11.27099609 40.10180664 C11.29241426 42.30430849 11.33905138 44.50505459 11.390625 46.70703125 C11.39185364 47.39150833 11.39308228 48.07598541 11.39434814 48.78120422 C11.4935265 52.00239879 11.61174747 53.60356277 13.91088867 55.95117188 C16.33665823 57.16901762 17.42553258 57.19050535 20.0625 56.6875 C24 56 24 56 27 56 C28.76462683 59.08809695 29 60.23312136 29 64 C21.90313953 67.04151163 16.83410108 68.27803369 9.25 65.75 C4.19414056 63.02761415 1.73911823 60.46412779 0 55 C-0.16464931 52.39163626 -0.23392915 49.89680502 -0.1953125 47.29296875 C-0.1924826 46.56757401 -0.18965271 45.84217926 -0.18673706 45.09480286 C-0.17559799 42.79219632 -0.15050566 40.48998773 -0.125 38.1875 C-0.11496206 36.62044835 -0.10583763 35.05339057 -0.09765625 33.48632812 C-0.0756793 29.65740022 -0.04119339 25.82876744 0 22 C-2.73064947 22.08730853 -5.4581619 22.19422124 -8.1875 22.3125 C-8.95642578 22.33505859 -9.72535156 22.35761719 -10.51757812 22.38085938 C-15.19946376 22.6018926 -18.06683665 23.23715644 -22 26 C-22.66 26 -23.32 26 -24 26 C-27.4468105 34.27049704 -27.54777664 42.25590752 -27.6875 51.0625 C-27.72073621 52.51500355 -27.75523151 53.96747886 -27.79101562 55.41992188 C-27.87519179 58.94640739 -27.94233651 62.47296962 -28 66 C-31.3 66 -34.6 66 -38 66 C-38 48.51 -38 31.02 -38 13 C-34.7 13 -31.4 13 -28 13 C-27.67 14.65 -27.34 16.3 -27 18 C-26.53851562 17.65066406 -26.07703125 17.30132813 -25.6015625 16.94140625 C-17.40036401 11.22001679 -9.59422174 11.60729039 0 13 C0 8.71 0 4.42 0 0 Z " fill="#000000" transform="translate(730,562)"/>
<path d="M0 0 C3.3 0 6.6 0 10 0 C10.33 8.91 10.66 17.82 11 27 C13.64 25.35 16.28 23.7 19 22 C21.4375 21.1875 21.4375 21.1875 24 21 C24.65613281 20.94972656 25.31226563 20.89945312 25.98828125 20.84765625 C32.63197855 20.5607954 38.83523055 21.32350927 44.05078125 25.734375 C50.15287268 32.25337951 51.31450024 38.8835285 51.1953125 47.55859375 C51.1924826 48.34774673 51.18965271 49.13689972 51.18673706 49.94996643 C51.17563057 52.44597172 51.15054455 54.94160498 51.125 57.4375 C51.11495785 59.13996874 51.10583417 60.84244316 51.09765625 62.54492188 C51.0757226 66.69675576 51.04125977 70.84831502 51 75 C47.37 75 43.74 75 40 75 C39.98598145 73.41131104 39.98598145 73.41131104 39.97167969 71.79052734 C39.93166151 67.84284149 39.8658709 63.89592529 39.79248047 59.94873047 C39.76433913 58.24375329 39.74309065 56.53864731 39.72900391 54.83349609 C39.70747863 52.37530911 39.660783 49.91865952 39.609375 47.4609375 C39.60814636 46.70444916 39.60691772 45.94796082 39.60565186 45.16854858 C39.46539639 40.0452126 38.37875985 37.06272247 35 33 C30.09229437 30.37494815 25.27697565 30.7138554 20 32 C15.37224938 34.22817622 13.52066254 36.3117344 11.60897827 41.04885864 C10.60853043 44.25425243 10.55540209 47.34097583 10.48828125 50.68359375 C10.47033005 51.38396255 10.45237885 52.08433136 10.43388367 52.80592346 C10.38022445 55.01638989 10.34603068 57.22664612 10.3125 59.4375 C10.27928743 60.94729461 10.24479419 62.45706163 10.20898438 63.96679688 C10.12452605 67.64432933 10.0575045 71.32193591 10 75 C6.7 75 3.4 75 0 75 C0 50.25 0 25.5 0 0 Z " fill="#000000" transform="translate(684,411)"/>
<path d="M0 0 C4.91384011 3.76265848 8.33337178 8.86025742 9.98828125 14.81640625 C9.98828125 18.44640625 9.98828125 22.07640625 9.98828125 25.81640625 C-10.80171875 26.31140625 -10.80171875 26.31140625 -32.01171875 26.81640625 C-28.49042406 35.12932362 -28.49042406 35.12932362 -21.38671875 39.62890625 C-15.54009294 41.59224442 -9.98045641 41.15783586 -4.375 38.625 C-2.19806491 37.42546434 -0.09082204 36.17736517 1.98828125 34.81640625 C3.63828125 36.79640625 5.28828125 38.77640625 6.98828125 40.81640625 C5.53491807 44.62438016 3.80920007 45.77707902 0.17578125 47.50390625 C-0.67628906 47.92027344 -1.52835938 48.33664062 -2.40625 48.765625 C-11.31356578 52.35793076 -20.25231921 51.29923917 -29.01171875 47.81640625 C-35.43538961 44.30156748 -40.16031244 39.33697905 -42.5 32.27734375 C-44.26090401 23.80887408 -44.04418203 15.55794466 -39.62109375 8.00390625 C-30.13883096 -4.88460627 -13.92464916 -8.19256058 0 0 Z M-29.38671875 10.12890625 C-31.3916032 13.22185669 -31.3916032 13.22185669 -33.01171875 18.81640625 C-22.12171875 18.81640625 -11.23171875 18.81640625 -0.01171875 18.81640625 C-1.08994951 12.34702166 -2.03809313 10.54952384 -7.01171875 6.81640625 C-14.75115465 3.2691648 -23.21128825 4.11598708 -29.38671875 10.12890625 Z " fill="#000000" transform="translate(786.01171875,436.18359375)"/>
<path d="M0 0 C4.91384011 3.76265848 8.33337178 8.86025742 9.98828125 14.81640625 C9.98828125 18.44640625 9.98828125 22.07640625 9.98828125 25.81640625 C-10.80171875 26.31140625 -10.80171875 26.31140625 -32.01171875 26.81640625 C-28.49042406 35.12932362 -28.49042406 35.12932362 -21.38671875 39.62890625 C-15.54009294 41.59224442 -9.98045641 41.15783586 -4.375 38.625 C-2.19806491 37.42546434 -0.09082204 36.17736517 1.98828125 34.81640625 C3.63828125 36.79640625 5.28828125 38.77640625 6.98828125 40.81640625 C5.53491807 44.62438016 3.80920007 45.77707902 0.17578125 47.50390625 C-0.67628906 47.92027344 -1.52835938 48.33664062 -2.40625 48.765625 C-11.31356578 52.35793076 -20.25231921 51.29923917 -29.01171875 47.81640625 C-35.43538961 44.30156748 -40.16031244 39.33697905 -42.5 32.27734375 C-44.26090401 23.80887408 -44.04418203 15.55794466 -39.62109375 8.00390625 C-30.13883096 -4.88460627 -13.92464916 -8.19256058 0 0 Z M-29.38671875 10.12890625 C-31.3916032 13.22185669 -31.3916032 13.22185669 -33.01171875 18.81640625 C-22.12171875 18.81640625 -11.23171875 18.81640625 -0.01171875 18.81640625 C-1.08994951 12.34702166 -2.03809313 10.54952384 -7.01171875 6.81640625 C-14.75115465 3.2691648 -23.21128825 4.11598708 -29.38671875 10.12890625 Z " fill="#000000" transform="translate(571.01171875,436.18359375)"/>
<path d="M0 0 C5.76919958 4.54171031 8.07587285 9.85264351 9 17 C9.08014588 19.68428385 9.1170847 22.34049184 9.09765625 25.0234375 C9.0962413 25.76961334 9.09482635 26.51578918 9.09336853 27.28457642 C9.08780874 29.64809318 9.07526389 32.01151227 9.0625 34.375 C9.0574798 35.98567571 9.0529178 37.59635291 9.04882812 39.20703125 C9.03785251 43.13805799 9.02061596 47.06901248 9 51 C5.7 51 2.4 51 -1 51 C-1.495 49.02 -1.495 49.02 -2 47 C-3.051875 47.639375 -4.10375 48.27875 -5.1875 48.9375 C-11.47783515 52.49072325 -18.35342265 52.95797942 -25.40625 51.50390625 C-30.43565603 50.02023147 -33.64587881 48.19265149 -37 44 C-38.94892318 38.15323045 -38.99344445 32.06047738 -36.3125 26.5 C-32.28528823 22.14625754 -28.32799033 20.14727022 -22.43457031 19.88647461 C-21.49194336 19.89171143 -20.54931641 19.89694824 -19.578125 19.90234375 C-18.55332031 19.90556641 -17.52851562 19.90878906 -16.47265625 19.91210938 C-15.40917969 19.92048828 -14.34570312 19.92886719 -13.25 19.9375 C-12.17105469 19.94201172 -11.09210937 19.94652344 -9.98046875 19.95117188 C-7.32025617 19.96294273 -4.66015635 19.97938601 -2 20 C-2.30292969 18.71867187 -2.60585938 17.43734375 -2.91796875 16.1171875 C-3.0883667 15.39644043 -3.25876465 14.67569336 -3.43432617 13.93310547 C-4.14543939 11.50298271 -4.88896855 10.4073543 -7 9 C-12.78094156 5.94894751 -18.09940292 6.61124246 -24.1875 8.375 C-27.29137115 9.34282124 -30.12527527 10.4800306 -33 12 C-34.32 10.02 -35.64 8.04 -37 6 C-35.98735543 3.30150021 -35.35013765 2.19520949 -32.79296875 0.76953125 C-31.50326172 0.29580078 -31.50326172 0.29580078 -30.1875 -0.1875 C-29.33542969 -0.51105469 -28.48335937 -0.83460938 -27.60546875 -1.16796875 C-18.36632522 -4.11839989 -8.92498489 -3.97018901 0 0 Z M-26 30 C-28.35048538 33.52572807 -28.66397817 34.85013645 -28 39 C-25.32293994 42.24065165 -23.73151927 43.70300802 -19.5859375 44.4140625 C-12.99839068 44.632984 -8.60457142 43.33040601 -3.625 38.875 C-1.90167457 35.82603963 -1.81879677 34.70810649 -1.8984375 31.3203125 C-1.92043213 30.10625732 -1.92043213 30.10625732 -1.94287109 28.86767578 C-1.96172363 28.25134277 -1.98057617 27.63500977 -2 27 C-4.87557703 26.91861574 -7.74882262 26.85932149 -10.625 26.8125 C-11.43324219 26.78736328 -12.24148438 26.76222656 -13.07421875 26.73632812 C-18.14230591 26.67452218 -21.63703837 27.12044532 -26 30 Z " fill="#000000" transform="translate(624,435)"/>
<path d="M0 0 C5.81662244 4.6980412 9.03855019 12.06504662 9.92578125 19.41015625 C10.19805466 27.07680231 7.90890607 33.78804717 3.9375 40.3125 C-3.23961601 47.09088734 -11.19935838 49.94527521 -21.015625 49.69140625 C-28.19253334 48.89804053 -35.08094568 46.05653086 -39.94140625 40.61328125 C-46.34645729 32.51050584 -47.38988079 24.62772668 -46.3125 14.4375 C-43.77838488 5.97536558 -38.65196109 0.95438743 -31.1875 -3.375 C-20.86970847 -7.6366965 -9.26877416 -6.15014526 0 0 Z M-31.0625 8.625 C-34.87581962 13.39164952 -36.68011131 17.84206484 -36.25 24 C-35.30531784 29.82888994 -33.12546041 33.79720248 -28.6875 37.8125 C-23.61291365 40.25581935 -18.59996858 41.3579912 -13.06640625 39.80859375 C-8.23810718 37.62718831 -5.33569676 34.74326508 -2.3125 30.4375 C-0.43355546 24.80066637 -0.56529058 18.67912826 -2.4375 13.0625 C-5.74733906 8.42872532 -9.76920876 4.96190509 -15.3125 3.4375 C-21.56615519 2.75775487 -26.19393722 4.7522796 -31.0625 8.625 Z " fill="#000000" transform="translate(674.3125,579.5625)"/>
<path d="M0 0 C3.96 0 7.92 0 12 0 C14.10038987 4.89265046 16.1999759 9.7856448 18.29882812 14.67895508 C19.01247605 16.34246062 19.7263409 18.00587311 20.44042969 19.66918945 C21.46867438 22.06436947 22.49613035 24.4598865 23.5234375 26.85546875 C23.84122162 27.5952446 24.15900574 28.33502045 24.48641968 29.09721375 C26.03672932 32.71447288 27.55993388 36.33694972 29 40 C33.95048496 29.77118339 38.40497593 19.37902588 42.71044922 8.86328125 C43.12311035 7.85910156 43.53577148 6.85492187 43.9609375 5.8203125 C44.33009277 4.91555176 44.69924805 4.01079102 45.07958984 3.07861328 C46 1 46 1 47 0 C48.68608966 -0.07205511 50.37500659 -0.08386068 52.0625 -0.0625 C52.98160156 -0.05347656 53.90070312 -0.04445313 54.84765625 -0.03515625 C55.55792969 -0.02355469 56.26820313 -0.01195312 57 0 C55.06840976 6.11225773 52.82542136 11.98674622 50.234375 17.84765625 C49.87788879 18.6626207 49.52140259 19.47758514 49.15411377 20.31724548 C48.02308193 22.90062572 46.8866731 25.4815977 45.75 28.0625 C45.00354411 29.76481521 44.25744782 31.46728815 43.51171875 33.16992188 C42.04850265 36.50993328 40.58123158 39.84812213 39.11157227 43.18530273 C37.72513517 46.33758656 36.35354595 49.49563497 34.99584961 52.66040039 C34.68129822 53.39024643 34.36674683 54.12009247 34.04266357 54.87205505 C33.45867084 56.22866865 32.87812168 57.58677237 32.30181885 58.94667053 C29.51542991 65.4014109 26.65148688 70.12450945 20.0625 72.9375 C13.11042109 75.0573574 6.48504771 74.20950426 0 71 C-0.66 70.01 -1.32 69.02 -2 68 C-0.68 65.69 0.64 63.38 2 61 C2.680625 61.309375 3.36125 61.61875 4.0625 61.9375 C8.45838652 63.52750151 12.16350716 64.64063704 16.6875 63.0625 C19.93290749 60.16794737 21.87924395 57.23212131 23 53 C22.51381466 49.58904654 21.13027176 46.75185779 19.62890625 43.671875 C19.23557602 42.80161682 18.84224579 41.93135864 18.43699646 41.034729 C17.17457197 38.25869101 15.87006177 35.50502132 14.5625 32.75 C13.71647303 30.91410689 12.87334359 29.07687559 12.03320312 27.23828125 C10.42315523 23.72108833 8.79923813 20.21087961 7.16455078 16.70507812 C4.61138635 11.19905126 2.27607311 5.62708833 0 0 Z " fill="#000000" transform="translate(946,575)"/>
<path d="M0 0 C5.89777405 2.50942006 8.63595591 7.77206131 11.875 13.0625 C14.49156492 20.00829051 14.33539248 28.65397422 11.6171875 35.46484375 C10.54499203 37.48206732 9.41531542 39.47044169 8.21484375 41.4140625 C6.75136317 44.52925268 6.90845133 45.78335901 8 49 C8.90000532 50.8459269 8.90000532 50.8459269 10 52.5 C11.71165912 55.37336279 12.59018196 57.63949209 13 61 C13.226875 62.2375 13.45375 63.475 13.6875 64.75 C14.7136951 73.8831364 10.93420539 80.56765918 6 88 C6.63228516 89.04800781 6.63228516 89.04800781 7.27734375 90.1171875 C7.82519531 91.02726563 8.37304688 91.93734375 8.9375 92.875 C9.48277344 93.77992188 10.02804688 94.68484375 10.58984375 95.6171875 C13.00344116 99.6955654 13.08840972 102.22587508 13 107 C11.125 107.625 11.125 107.625 9 108 C8.34 107.34 7.68 106.68 7 106 C7 104.68 7 103.36 7 102 C6.37351563 102.08378906 5.74703125 102.16757812 5.1015625 102.25390625 C4.28429687 102.35574219 3.46703125 102.45757813 2.625 102.5625 C1.40683594 102.71912109 1.40683594 102.71912109 0.1640625 102.87890625 C-2 103 -2 103 -4 102 C-4.66 103.98 -5.32 105.96 -6 108 C-7.65 107.67 -9.3 107.34 -11 107 C-10.07005985 99.31997704 -7.70218158 94.12170809 -3 88 C-3.40992188 87.34773437 -3.81984375 86.69546875 -4.2421875 86.0234375 C-9.16977103 78.03084987 -12.11911058 71.56181242 -11 62 C-10.34 61.01 -9.68 60.02 -9 59 C-8.87625 58.071875 -8.7525 57.14375 -8.625 56.1875 C-8 53 -8 53 -5.875 49.875 C-3.76005824 47.30584792 -3.76005824 47.30584792 -4.2265625 45.13671875 C-5.13717522 42.62103614 -6.26780699 40.31233711 -7.5 37.9375 C-11.19267015 30.79905334 -12.31046561 24.31291179 -10.3515625 16.37109375 C-8.03240576 10.03801188 -4.37201964 5.08431497 0 0 Z M1 9 C-4.06906978 14.91391474 -5.45939891 19.50825428 -5.32421875 27.203125 C-4.8481674 31.30978487 -3.48002663 34.69053303 -1 38 C-0.01 38.66 0.98 39.32 2 40 C2.81928886 38.75443908 3.63015186 37.50333365 4.4375 36.25 C5.11619141 35.20585938 5.11619141 35.20585938 5.80859375 34.140625 C8.19114675 29.85984126 8.39149754 25.85456948 8 21 C5.96196575 13.98183799 5.96196575 13.98183799 1 9 Z M0 51 C-1.29320124 52.72385506 -1.29320124 52.72385506 -2.5 54.875 C-3.89818809 57.25362486 -5.03792084 59.03792084 -7 61 C-6.34 61 -5.68 61 -5 61 C-5 62.32 -5 63.64 -5 65 C-0.71 65 3.58 65 8 65 C7.67 63.68 7.34 62.36 7 61 C7.66 60.67 8.32 60.34 9 60 C8.38125 59.443125 8.38125 59.443125 7.75 58.875 C6 57 6 57 3.9375 53.8125 C3.298125 52.884375 2.65875 51.95625 2 51 C1.34 51 0.68 51 0 51 Z M-5 68 C-4.67 69.98 -4.34 71.96 -4 74 C-0.37 74 3.26 74 7 74 C7.33 72.02 7.66 70.04 8 68 C3.71 68 -0.58 68 -5 68 Z M-2 77 C-1.01 78.98 -0.02 80.96 1 83 C3.67331713 80.28996707 3.67331713 80.28996707 5 77 C2.69 77 0.38 77 -2 77 Z M1 93 C-0.485 95.475 -0.485 95.475 -2 98 C0.31 98.33 2.62 98.66 5 99 C3.88145414 95.27385847 3.88145414 95.27385847 1 93 Z " fill="#000000" transform="translate(190,492)"/>
<path d="M0 0 C3.63 0 7.26 0 11 0 C11.01401855 1.58868896 11.01401855 1.58868896 11.02832031 3.20947266 C11.06833849 7.15715851 11.1341291 11.10407471 11.20751953 15.05126953 C11.23566087 16.75624671 11.25690935 18.46135269 11.27099609 20.16650391 C11.29252137 22.62469089 11.339217 25.08134048 11.390625 27.5390625 C11.39185364 28.29555084 11.39308228 29.05203918 11.39434814 29.83145142 C11.53460361 34.9547874 12.62124015 37.93727753 16 42 C20.93543593 44.63988433 25.68803128 44.17825554 31 43 C34.43759148 41.58012526 35.65818142 40.55769028 37.60083008 37.38818359 C39.20457255 33.50461389 39.47465784 30.11038747 39.51171875 25.9765625 C39.52966995 25.23038666 39.54762115 24.48421082 39.56611633 23.71542358 C39.61993105 21.3520051 39.65402067 18.98878514 39.6875 16.625 C39.72069872 15.01429546 39.75519072 13.40361702 39.79101562 11.79296875 C39.87564018 7.86212313 39.94258743 3.93133341 40 0 C43.63 0 47.26 0 51 0 C51 17.49 51 34.98 51 53 C47.7 53 44.4 53 41 53 C40.67 51.35 40.34 49.7 40 48 C39.48050781 48.34933594 38.96101562 48.69867187 38.42578125 49.05859375 C31.4150734 53.63304822 25.11052367 55.24103579 16.73046875 53.5390625 C11.08747199 51.90480449 6.82480235 49.4897499 3 45 C-1.16933346 36.20667258 -0.33502474 26.9486708 -0.1875 17.4375 C-0.17242858 15.7441525 -0.15874451 14.05079206 -0.14648438 12.35742188 C-0.11366704 8.23795778 -0.06202063 4.1191237 0 0 Z " fill="#000000" transform="translate(766,575)"/>
<path d="M0 0 C6.6436973 -0.28686085 12.8469493 0.47585302 18.0625 4.88671875 C24.16459143 11.40572326 25.32621899 18.03587225 25.20703125 26.7109375 C25.20420135 27.50009048 25.20137146 28.28924347 25.19845581 29.10231018 C25.18734932 31.59831547 25.1622633 34.09394873 25.13671875 36.58984375 C25.1266766 38.29231249 25.11755292 39.99478691 25.109375 41.69726562 C25.08744135 45.84909951 25.05297852 50.00065877 25.01171875 54.15234375 C21.38171875 54.15234375 17.75171875 54.15234375 14.01171875 54.15234375 C13.9977002 52.56365479 13.9977002 52.56365479 13.98339844 50.94287109 C13.94338026 46.99518524 13.87758965 43.04826904 13.80419922 39.10107422 C13.77605788 37.39609704 13.7548094 35.69099106 13.74072266 33.98583984 C13.71919738 31.52765286 13.67250175 29.07100327 13.62109375 26.61328125 C13.61986511 25.85679291 13.61863647 25.10030457 13.61737061 24.32089233 C13.47711514 19.19755635 12.3904786 16.21506622 9.01171875 12.15234375 C4.10401312 9.5272919 -0.7113056 9.86619915 -5.98828125 11.15234375 C-10.61603187 13.38051997 -12.46761871 15.46407815 -14.37930298 20.20120239 C-15.37975082 23.40659618 -15.43287916 26.49331958 -15.5 29.8359375 C-15.5179512 30.5363063 -15.5359024 31.23667511 -15.55439758 31.95826721 C-15.6080568 34.16873364 -15.64225057 36.37898987 -15.67578125 38.58984375 C-15.70899382 40.09963836 -15.74348706 41.60940538 -15.77929688 43.11914062 C-15.8637552 46.79667308 -15.93077675 50.47427966 -15.98828125 54.15234375 C-19.28828125 54.15234375 -22.58828125 54.15234375 -25.98828125 54.15234375 C-25.98828125 36.66234375 -25.98828125 19.17234375 -25.98828125 1.15234375 C-22.68828125 1.15234375 -19.38828125 1.15234375 -15.98828125 1.15234375 C-15.65828125 2.80234375 -15.32828125 4.45234375 -14.98828125 6.15234375 C-14.46878906 5.80300781 -13.94929687 5.45367188 -13.4140625 5.09375 C-8.81432327 2.09244141 -5.50958725 0.42214912 0 0 Z " fill="#000000" transform="translate(855.98828125,573.84765625)"/>
<path d="M0 0 C6.6436973 -0.28686085 12.8469493 0.47585302 18.0625 4.88671875 C24.16459143 11.40572326 25.32621899 18.03587225 25.20703125 26.7109375 C25.20420135 27.50009048 25.20137146 28.28924347 25.19845581 29.10231018 C25.18734932 31.59831547 25.1622633 34.09394873 25.13671875 36.58984375 C25.1266766 38.29231249 25.11755292 39.99478691 25.109375 41.69726562 C25.08744135 45.84909951 25.05297852 50.00065877 25.01171875 54.15234375 C21.38171875 54.15234375 17.75171875 54.15234375 14.01171875 54.15234375 C13.9977002 52.56365479 13.9977002 52.56365479 13.98339844 50.94287109 C13.94338026 46.99518524 13.87758965 43.04826904 13.80419922 39.10107422 C13.77605788 37.39609704 13.7548094 35.69099106 13.74072266 33.98583984 C13.71919738 31.52765286 13.67250175 29.07100327 13.62109375 26.61328125 C13.61986511 25.85679291 13.61863647 25.10030457 13.61737061 24.32089233 C13.47711514 19.19755635 12.3904786 16.21506622 9.01171875 12.15234375 C4.10401312 9.5272919 -0.7113056 9.86619915 -5.98828125 11.15234375 C-10.61603187 13.38051997 -12.46761871 15.46407815 -14.37930298 20.20120239 C-15.37975082 23.40659618 -15.43287916 26.49331958 -15.5 29.8359375 C-15.5179512 30.5363063 -15.5359024 31.23667511 -15.55439758 31.95826721 C-15.6080568 34.16873364 -15.64225057 36.37898987 -15.67578125 38.58984375 C-15.70899382 40.09963836 -15.74348706 41.60940538 -15.77929688 43.11914062 C-15.8637552 46.79667308 -15.93077675 50.47427966 -15.98828125 54.15234375 C-19.28828125 54.15234375 -22.58828125 54.15234375 -25.98828125 54.15234375 C-25.98828125 36.66234375 -25.98828125 19.17234375 -25.98828125 1.15234375 C-22.68828125 1.15234375 -19.38828125 1.15234375 -15.98828125 1.15234375 C-15.65828125 2.80234375 -15.32828125 4.45234375 -14.98828125 6.15234375 C-14.46878906 5.80300781 -13.94929687 5.45367187 -13.4140625 5.09375 C-8.81432327 2.09244141 -5.50958725 0.42214912 0 0 Z " fill="#000000" transform="translate(880.98828125,431.84765625)"/>
<path d="M0 0 C1.65 0 3.3 0 5 0 C5 79.86 5 159.72 5 242 C3.35 242 1.7 242 0 242 C0 162.14 0 82.28 0 0 Z " fill="#000000" transform="translate(378,411)"/>
<path d="M0 0 C3.63 0 7.26 0 11 0 C11 4.29 11 8.58 11 13 C15.95 13 20.9 13 26 13 C26 15.97 26 18.94 26 22 C21.05 22 16.1 22 11 22 C11.05103569 26.50389934 11.11392329 31.00432893 11.20751953 35.50708008 C11.23573878 37.03854178 11.25694869 38.57014939 11.27099609 40.10180664 C11.29241426 42.30430849 11.33905138 44.50505459 11.390625 46.70703125 C11.39185364 47.39150833 11.39308228 48.07598541 11.39434814 48.78120422 C11.4935265 52.00239879 11.61174747 53.60356277 13.91088867 55.95117188 C16.33665823 57.16901762 17.42553258 57.19050535 20.0625 56.6875 C24 56 24 56 27 56 C28.76462683 59.08809695 29 60.23312136 29 64 C21.90313953 67.04151163 16.83410108 68.27803369 9.25 65.75 C4.19414056 63.02761415 1.73911823 60.46412779 0 55 C-0.16464931 52.39163626 -0.23392915 49.89680502 -0.1953125 47.29296875 C-0.1924826 46.56757401 -0.18965271 45.84217926 -0.18673706 45.09480286 C-0.17559799 42.79219632 -0.15050566 40.48998773 -0.125 38.1875 C-0.11496206 36.62044835 -0.10583763 35.05339057 -0.09765625 33.48632812 C-0.0756793 29.65740022 -0.04119339 25.82876744 0 22 C-2.97 22 -5.94 22 -9 22 C-9 19.03 -9 16.06 -9 13 C-6.03 13 -3.06 13 0 13 C0 8.71 0 4.42 0 0 Z " fill="#000000" transform="translate(919,562)"/>
<path d="M0 0 C3.63 0 7.26 0 11 0 C11 4.29 11 8.58 11 13 C15.95 13 20.9 13 26 13 C26 15.97 26 18.94 26 22 C21.05 22 16.1 22 11 22 C11.05103569 26.50389934 11.11392329 31.00432893 11.20751953 35.50708008 C11.23573878 37.03854178 11.25694869 38.57014939 11.27099609 40.10180664 C11.29241426 42.30430849 11.33905138 44.50505459 11.390625 46.70703125 C11.39185364 47.39150833 11.39308228 48.07598541 11.39434814 48.78120422 C11.4935265 52.00239879 11.61174747 53.60356277 13.91088867 55.95117188 C16.33665823 57.16901762 17.42553258 57.19050535 20.0625 56.6875 C24 56 24 56 27 56 C28.76462683 59.08809695 29 60.23312136 29 64 C21.90313953 67.04151163 16.83410108 68.27803369 9.25 65.75 C4.19414056 63.02761415 1.73911823 60.46412779 0 55 C-0.16464931 52.39163626 -0.23392915 49.89680502 -0.1953125 47.29296875 C-0.1924826 46.56757401 -0.18965271 45.84217926 -0.18673706 45.09480286 C-0.17559799 42.79219632 -0.15050566 40.48998773 -0.125 38.1875 C-0.11496206 36.62044835 -0.10583763 35.05339057 -0.09765625 33.48632812 C-0.0756793 29.65740022 -0.04119339 25.82876744 0 22 C-2.97 22 -5.94 22 -9 22 C-9 19.03 -9 16.06 -9 13 C-6.03 13 -3.06 13 0 13 C0 8.71 0 4.42 0 0 Z " fill="#000000" transform="translate(647,420)"/>
<path d="M0 0 C1.65 0 3.3 0 5 0 C5.66 1.32 6.32 2.64 7 4 C7.62648437 3.98839844 8.25296875 3.97679687 8.8984375 3.96484375 C9.71570313 3.95582031 10.53296875 3.94679688 11.375 3.9375 C12.18710938 3.92589844 12.99921875 3.91429687 13.8359375 3.90234375 C16 4 16 4 18 5 C18.33 3.35 18.66 1.7 19 0 C20.65 0 22.3 0 24 0 C24.80969842 6.15370798 22.12586684 10.8841447 19 16 C17.33203125 17.80078125 17.33203125 17.80078125 16 19 C16.5775 19.66 17.155 20.32 17.75 21 C24.22852221 29.63802961 25.23333188 37.37437149 24 48 C22.58582662 52.56112838 21.09445949 56.78702166 16.828125 59.2578125 C16.22484375 59.50273437 15.6215625 59.74765625 15 60 C14.34 59.34 13.68 58.68 13 58 C13.55555556 53.44444444 13.55555556 53.44444444 15 52 C13.35 52 11.7 52 10 52 C10.66 53.65 11.32 55.3 12 57 C11.01 57.99 10.02 58.98 9 60 C6 59 6 59 4.6484375 56.8203125 C4.22820312 55.93085938 3.80796875 55.04140625 3.375 54.125 C2.94960937 53.24070312 2.52421875 52.35640625 2.0859375 51.4453125 C-1.18416236 44.08170633 -1.12730907 36.07735428 1.75 28.5625 C3.3833734 24.93991114 5.27028762 21.92469184 8 19 C7.59007812 18.41992188 7.18015625 17.83984375 6.7578125 17.2421875 C2.83626378 11.55688002 0 7.0930313 0 0 Z M8 8 C9.32 10.31 10.64 12.62 12 15 C13.89213369 12.61426621 15.02391783 10.92824652 16 8 C13.36 8 10.72 8 8 8 Z M11 23 C9.515 26.465 9.515 26.465 8 30 C10.64 30 13.28 30 16 30 C14.02 26.535 14.02 26.535 12 23 C11.67 23 11.34 23 11 23 Z M7 33 C6.67 34.65 6.34 36.3 6 38 C9.96 38 13.92 38 18 38 C17.67 36.35 17.34 34.7 17 33 C13.7 33 10.4 33 7 33 Z M6 42 C6.33 43.65 6.66 45.3 7 47 C10.63 47 14.26 47 18 47 C18.33 45.35 18.66 43.7 19 42 C14.71 42 10.42 42 6 42 Z " fill="#000000" transform="translate(179,434)"/>
<path d="M0 0 C3.63 0 7.26 0 11 0 C11 23.43 11 46.86 11 71 C7.37 71 3.74 71 0 71 C0 47.57 0 24.14 0 0 Z " fill="#000000" transform="translate(829,415)"/>
<path d="M0 0 C0 3.3 0 6.6 0 10 C-2.3203125 10.433125 -2.3203125 10.433125 -4.6875 10.875 C-6.4588032 11.24777426 -8.22967978 11.62258511 -10 12 C-10.969375 12.185625 -11.93875 12.37125 -12.9375 12.5625 C-16.47782146 15.02999677 -17.12824506 18.96518156 -18 23 C-18.48958386 28.35242484 -18.60227418 33.69082106 -18.6875 39.0625 C-18.72073621 40.51500355 -18.75523151 41.96747886 -18.79101562 43.41992188 C-18.87519179 46.94640739 -18.94233651 50.47296962 -19 54 C-22.3 54 -25.6 54 -29 54 C-29 36.51 -29 19.02 -29 1 C-25.7 1 -22.4 1 -19 1 C-18.67 2.65 -18.34 4.3 -18 6 C-17.48050781 5.65066406 -16.96101563 5.30132812 -16.42578125 4.94140625 C-10.6067504 1.14451551 -7.04448781 0 0 0 Z " fill="#000000" transform="translate(525,432)"/>
<path d="M0 0 C3.3 0 6.6 0 10 0 C10 17.49 10 34.98 10 53 C6.7 53 3.4 53 0 53 C0 35.51 0 18.02 0 0 Z " fill="#000000" transform="translate(895,575)"/>
<path d="M0 0 C2.86801846 0.08864784 3.78417611 0.16414857 6.125 1.9375 C7.46661569 5.4257008 6.98928615 7.80025344 6.0625 11.375 C2.35834707 13.84443529 0.44105495 13.84413089 -3.9375 13.375 C-5.9375 11.8125 -5.9375 11.8125 -6.9375 9.375 C-6.6274447 3.38059754 -6.43322862 0.61268844 0 0 Z " fill="#000000" transform="translate(899.9375,551.625)"/>
</svg>