<?xml version="1.0" standalone="no"?>
<!DOCTYPE svg PUBLIC "-//W3C//DTD SVG 20010904//EN"
 "http://www.w3.org/TR/2001/REC-SVG-20010904/DTD/svg10.dtd">
<svg version="1.0" xmlns="http://www.w3.org/2000/svg"
 width="736.000000pt" height="736.000000pt" viewBox="0 0 736.000000 736.000000"
 preserveAspectRatio="xMidYMid meet">

<g transform="translate(0.000000,736.000000) scale(0.100000,-0.100000)"
fill="#000000" stroke="none">
<path d="M3505 6909 c-393 -20 -746 -104 -1105 -261 -974 -426 -1676 -1328
-1849 -2378 -48 -294 -53 -683 -12 -962 120 -812 529 -1527 1161 -2031 89 -71
281 -204 363 -251 27 -15 47 -29 45 -32 -11 -10 -265 -77 -361 -94 -132 -24
-177 -25 -177 -6 0 8 9 58 20 111 11 53 20 98 20 99 0 0 -46 0 -102 -2 -124
-4 -357 12 -488 34 -204 35 -360 95 -464 180 -31 25 -56 40 -56 34 0 -25 76
-212 122 -302 28 -53 70 -118 93 -145 l43 -48 -82 -85 c-89 -94 -176 -194
-176 -203 0 -7 127 -59 210 -86 108 -34 200 -53 300 -60 l95 -6 5 -85 5 -85
80 -24 c73 -23 96 -25 270 -24 206 0 278 11 600 88 167 40 188 47 510 163 372
134 570 193 790 234 171 32 454 32 640 -1 289 -50 501 -108 1090 -297 241 -78
356 -108 495 -129 132 -19 422 -30 562 -20 l107 7 3 86 3 87 100 7 c117 8 257
43 402 99 57 22 103 42 103 44 0 7 -81 98 -171 193 l-89 93 48 59 c54 67 140
233 177 343 13 41 28 83 32 93 5 14 -6 9 -38 -17 -100 -81 -193 -125 -346
-164 -187 -47 -345 -60 -723 -60 0 0 7 -35 15 -78 22 -113 22 -110 -27 -102
-58 10 -376 90 -412 104 l-30 12 79 50 c762 488 1273 1283 1416 2202 26 170
37 569 20 743 -110 1095 -732 2022 -1696 2525 -494 258 -1054 378 -1620 348z
m492 -74 c591 -62 1140 -288 1613 -663 122 -97 385 -360 481 -482 448 -567
679 -1225 679 -1934 0 -707 -225 -1359 -664 -1926 -201 -260 -607 -616 -848
-744 l-36 -19 -178 51 c-223 65 -533 143 -684 173 -63 12 -110 24 -105 26 6 1
64 19 130 38 402 121 756 333 1050 629 131 132 210 227 308 373 510 754 565
1742 142 2549 -125 239 -255 415 -449 610 -368 367 -809 601 -1311 693 -807
149 -1633 -108 -2215 -689 -405 -404 -649 -902 -721 -1475 -17 -129 -17 -473
0 -595 64 -477 246 -906 537 -1270 87 -108 264 -285 374 -373 271 -218 593
-382 918 -468 67 -18 121 -34 119 -35 -1 -2 -83 -24 -182 -49 -197 -50 -397
-110 -605 -180 -74 -25 -142 -45 -151 -45 -10 0 -56 23 -104 50 -425 246 -829
647 -1086 1081 -611 1030 -581 2305 76 3299 523 792 1373 1298 2320 1383 113
10 467 6 592 -8z m-92 -655 c459 -43 924 -232 1290 -524 191 -153 412 -405
550 -626 138 -223 260 -533 310 -787 25 -130 45 -282 39 -295 -2 -3 -25 -6
-50 -6 -25 0 -56 -8 -70 -17 -21 -13 -24 -21 -18 -49 3 -20 1 -36 -5 -40 -7
-5 -6 -14 4 -30 13 -19 13 -25 2 -34 -29 -24 -157 -10 -164 17 -5 19 -53 47
-98 57 -16 4 -34 10 -40 14 -21 15 -55 18 -55 5 0 -24 -20 -28 -42 -8 -11 10
-29 17 -39 15 -22 -4 -63 -41 -72 -66 -5 -11 -14 -14 -35 -10 -21 4 -31 2 -35
-10 -11 -27 -33 -18 -47 19 -9 24 -22 38 -39 42 -14 3 -40 15 -58 25 -31 19
-33 19 -62 2 -25 -15 -32 -15 -46 -4 -23 19 -67 20 -88 1 -11 -9 -33 -14 -57
-13 -30 2 -42 -2 -52 -18 -7 -11 -20 -20 -28 -20 -8 0 -20 -10 -25 -22 -8 -19
-17 -23 -50 -20 -192 12 -310 13 -383 2 -94 -14 -112 -7 -112 40 0 47 -10 60
-44 60 -18 0 -37 5 -43 11 -8 8 -68 12 -175 13 -159 1 -165 0 -237 -28 -75
-31 -91 -48 -91 -102 0 -23 -3 -24 -58 -24 -51 0 -62 4 -84 28 -31 33 -42 63
-28 72 13 8 -4 60 -20 60 -5 0 -19 -9 -30 -20 -11 -11 -23 -20 -26 -20 -15 0
-49 -47 -46 -63 2 -12 -3 -17 -17 -17 -12 0 -21 -6 -21 -14 0 -8 -3 -16 -7
-18 -11 -4 -48 -59 -56 -82 -5 -12 -1 -26 10 -38 13 -14 14 -21 5 -30 -7 -7
-12 -25 -12 -40 0 -15 -4 -28 -10 -28 -5 0 -10 11 -10 25 0 15 -6 25 -14 25
-17 0 -31 35 -27 66 1 14 -5 23 -18 27 -11 2 -20 13 -20 23 0 42 -13 99 -23
105 -6 4 -8 11 -4 17 3 5 0 15 -8 21 -7 6 -11 22 -8 36 2 15 0 25 -7 25 -6 0
-11 9 -11 20 0 11 -7 37 -17 58 -9 20 -15 41 -14 46 1 4 -8 24 -19 44 -14 22
-18 38 -11 45 5 5 7 35 5 66 -7 80 -11 94 -32 117 -10 11 -22 32 -25 46 -7 26
-32 58 -45 58 -4 0 -6 -18 -4 -40 3 -32 1 -40 -12 -40 -10 0 -16 9 -16 24 0
14 -5 28 -11 31 -6 4 -10 1 -8 -6 7 -57 -15 -65 -29 -11 l-10 37 -1 -32 c-1
-38 -21 -45 -21 -9 0 14 -4 28 -10 31 -6 4 -10 -5 -10 -19 0 -14 -4 -26 -10
-26 -5 0 -10 11 -10 24 0 34 -18 42 -22 11 -4 -36 -22 -32 -29 7 -4 18 -7 29
-9 23 -5 -22 -7 -31 -8 -42 -4 -27 -22 -12 -22 17 0 17 -5 30 -11 30 -5 0 -7
-5 -4 -10 9 -14 -4 -52 -16 -45 -5 4 -9 17 -9 30 0 13 -5 27 -11 31 -7 4 -9
-2 -7 -16 2 -13 -3 -25 -9 -27 -9 -3 -13 7 -13 30 0 30 -3 34 -20 30 -11 -3
-23 -17 -27 -32 -3 -14 -21 -47 -39 -72 -41 -56 -61 -159 -35 -176 13 -8 12
-12 -7 -31 -12 -12 -23 -26 -23 -32 -3 -19 -5 -25 -16 -45 -5 -11 -14 -38 -18
-60 -4 -22 -12 -46 -18 -53 -6 -7 -12 -30 -14 -50 -2 -20 -13 -45 -24 -55 -14
-13 -19 -27 -15 -43 3 -12 2 -26 -4 -29 -5 -3 -10 -13 -10 -21 0 -9 -7 -22
-15 -30 -8 -9 -15 -26 -15 -39 0 -36 -18 -75 -34 -75 -9 0 -13 6 -10 14 7 17
-60 49 -85 41 -11 -3 -22 -1 -26 5 -5 8 -13 6 -25 -5 -11 -10 -26 -14 -38 -10
-11 3 -23 1 -27 -5 -3 -5 -26 -10 -51 -10 -28 0 -43 4 -39 10 15 24 -33 7 -59
-20 -25 -27 -34 -31 -75 -28 -38 2 -46 6 -46 23 0 14 -14 26 -45 41 -25 12
-46 18 -48 13 -6 -16 -19 -10 -25 11 -3 11 -13 20 -24 20 -10 0 -29 9 -43 20
-17 13 -28 16 -37 9 -8 -7 -19 -7 -33 1 -17 9 -24 7 -40 -12 -11 -13 -19 -35
-20 -50 0 -15 -5 -30 -11 -34 -7 -4 -10 4 -8 22 2 16 0 35 -4 42 -10 15 1 35
14 27 5 -4 9 4 9 16 0 16 -5 20 -20 16 -13 -3 -20 0 -20 9 0 17 -14 18 -42 3
-16 -8 -22 -8 -29 2 -10 16 -151 22 -160 7 -4 -6 -21 -13 -38 -14 l-31 -4 0
79 c0 307 90 672 245 986 117 240 249 425 444 627 409 424 933 672 1541 731
82 8 333 6 435 -3z m-1027 -1846 c34 -4 65 -11 68 -15 3 -5 -2 -9 -11 -9 -35
0 -161 23 -175 32 -10 6 -4 8 20 4 19 -3 63 -8 98 -12z m157 -24 l30 -8 -30 0
c-16 0 -39 3 -50 8 l-20 9 20 -1 c11 0 34 -4 50 -8z m-80 -222 c-12 -53 -21
-52 -31 0 -6 28 -4 32 16 32 19 0 21 -4 15 -32z m20 -98 c0 -16 -6 -26 -17
-28 -14 -3 -18 3 -18 28 0 25 4 31 18 28 11 -2 17 -12 17 -28z m15 -90 c0 -23
-4 -30 -20 -30 -16 0 -20 7 -20 30 0 23 4 30 20 30 16 0 20 -7 20 -30z m18
-137 c-3 -33 -6 -38 -28 -38 -19 0 -26 6 -28 23 -5 36 5 52 33 52 24 0 26 -3
23 -37z m2206 -28 c37 -31 62 -45 83 -45 16 0 38 -7 49 -15 24 -19 52 -19 87
0 16 8 47 20 70 26 23 6 50 20 60 30 34 36 113 22 166 -30 23 -22 47 -33 92
-41 118 -22 129 -34 80 -89 -26 -29 -34 -32 -58 -26 -15 5 -38 7 -51 6 -13 -2
-39 9 -58 24 -19 14 -38 24 -43 21 -4 -3 -21 10 -36 29 -16 18 -33 31 -37 29
-5 -3 -15 0 -23 6 -20 17 -54 3 -61 -26 -7 -26 -38 -44 -76 -44 -11 0 -32 -9
-47 -19 -14 -11 -48 -22 -74 -26 -42 -7 -55 -4 -110 26 -34 18 -75 45 -90 61
-20 20 -39 28 -63 28 -42 0 -74 -15 -74 -35 0 -8 -9 -15 -20 -15 -11 0 -39
-13 -62 -30 -22 -16 -46 -30 -52 -30 -6 0 -36 13 -66 30 -62 33 -58 32 -121
54 -25 9 -59 30 -75 47 l-29 31 70 -7 c120 -11 165 -24 176 -52 l9 -25 38 28
c20 16 42 34 47 41 6 8 37 29 70 48 49 27 71 34 118 34 56 1 62 -2 111 -44z
m796 -29 c0 -18 -31 -29 -44 -16 -8 8 -7 14 4 20 22 14 40 12 40 -4z m-2990
-61 c0 -31 -3 -35 -25 -35 -22 0 -25 4 -25 35 0 31 3 35 25 35 22 0 25 -4 25
-35z m3095 -86 c19 -36 14 -59 -15 -59 -15 0 -20 7 -20 29 0 29 8 61 16 61 2
0 11 -14 19 -31z m-2537 -21 l3 -28 -80 0 -81 0 0 30 0 31 78 -3 c76 -3 77 -3
80 -30z m222 2 l0 -30 -80 0 -80 0 0 30 0 30 80 0 80 0 0 -30z m220 0 l0 -30
-80 0 -80 0 0 30 0 30 80 0 80 0 0 -30z m220 0 l0 -30 -80 0 -80 0 0 30 0 30
80 0 80 0 0 -30z m220 0 l0 -30 -80 0 -80 0 0 30 0 30 80 0 80 0 0 -30z
m-2530 -44 c0 -16 -7 -27 -20 -31 -11 -3 -20 -11 -20 -16 0 -5 -7 -9 -15 -9
-19 0 -19 30 1 58 21 31 54 29 54 -2z m4008 -73 l3 -33 -775 0 -776 0 0 35 0
35 773 -2 772 -3 3 -32z m-2500 -15 l3 -28 -80 0 -81 0 0 30 0 31 78 -3 c76
-3 77 -3 80 -30z m220 0 l3 -28 -80 0 -81 0 0 30 0 31 78 -3 c76 -3 77 -3 80
-30z m220 0 l3 -28 -80 0 -81 0 0 30 0 31 78 -3 c76 -3 77 -3 80 -30z m222 2
l0 -30 -80 0 -80 0 0 30 0 30 80 0 80 0 0 -30z m220 0 l0 -30 -80 0 -80 0 0
30 0 30 80 0 80 0 0 -30z m1144 -99 c-8 -33 -13 -41 -24 -41 -16 0 -23 49 -10
65 19 22 41 7 34 -24z m-690 -10 c-8 -33 -13 -41 -23 -41 -14 0 -21 42 -10 61
15 28 40 13 33 -20z m456 4 c0 -8 -4 -15 -10 -15 -5 0 -10 7 -10 15 0 8 5 15
10 15 6 0 10 -7 10 -15z m110 -6 c0 -5 -4 -9 -10 -9 -5 0 -10 7 -10 16 0 8 5
12 10 9 6 -3 10 -10 10 -16z m-882 -19 c5 -29 -13 -39 -64 -38 -37 0 -43 4
-47 27 -3 14 -4 28 -2 31 2 3 27 4 57 4 47 -1 53 -4 56 -24z m172 6 c0 -21 -6
-25 -50 -31 -58 -8 -70 -3 -70 31 0 23 3 24 60 24 57 0 60 -1 60 -24z m-540
-16 l0 -30 -74 0 c-58 0 -75 3 -80 16 -15 40 -9 44 74 44 l80 0 0 -30z m180 5
c0 -24 -3 -25 -59 -25 -50 0 -59 3 -64 19 -7 28 -1 31 65 31 55 0 58 -1 58
-25z m-1380 -30 l0 -45 -80 0 -80 0 0 45 0 45 80 0 80 0 0 -45z m738 2 l3 -38
-88 3 c-83 3 -88 4 -91 26 -7 48 2 53 90 50 l83 -3 3 -38z m240 11 l3 -28 -74
0 c-72 0 -75 1 -79 25 -3 13 -3 27 0 30 4 3 38 4 77 3 68 -3 70 -4 73 -30z
m-1488 -33 l0 -45 -95 0 c-103 0 -101 -1 -89 59 l7 31 88 0 89 0 0 -45z m270
15 l0 -30 -105 0 c-84 0 -105 3 -105 14 0 8 -3 21 -6 30 -5 14 8 16 105 16
l111 0 0 -30z m490 0 l0 -30 -80 0 -80 0 0 30 0 30 80 0 80 0 0 -30z m260 10
c0 -19 -7 -20 -95 -20 -88 0 -95 1 -95 20 0 19 7 20 95 20 88 0 95 -1 95 -20z
m1626 9 c7 -12 -15 -31 -28 -23 -4 3 -8 12 -8 20 0 17 26 19 36 3z m-2886 -44
l0 -45 -75 0 -75 0 0 45 0 45 75 0 75 0 0 -45z m-552 25 c40 0 42 -1 42 -30
l0 -30 -80 0 -80 0 0 36 0 37 38 -7 c20 -3 56 -6 80 -6z m327 -35 l0 -40 -107
-3 c-88 -2 -108 0 -108 11 0 8 -3 29 -6 46 l-7 32 114 -3 114 -3 0 -40z m-485
-13 l0 -28 -62 4 c-81 4 -87 7 -85 31 1 19 8 21 74 21 l73 0 0 -28z m1986 -11
c5 -5 88 -12 184 -15 96 -3 196 -8 223 -12 37 -5 47 -3 47 8 0 12 30 16 158
21 264 11 422 9 422 -6 0 -10 -46 -16 -187 -25 -104 -7 -209 -12 -234 -12 -25
0 -54 -7 -65 -15 -16 -12 -74 -14 -342 -15 -281 0 -326 2 -347 16 -33 21 -32
34 3 34 15 0 36 7 46 15 22 17 77 20 92 6z m1488 -30 c20 -21 19 -22 -1 -43
-18 -18 -28 -20 -77 -14 -31 4 -58 11 -60 15 -13 20 8 48 47 62 45 16 61 13
91 -20z m454 31 c9 -6 10 -16 1 -40 -13 -38 -26 -41 -35 -7 -11 43 5 65 34 47z
m350 -50 c2 -41 0 -54 -13 -58 -25 -10 -37 10 -43 66 l-5 52 29 -4 c27 -3 29
-6 32 -56z m-155 9 c10 -41 3 -61 -21 -61 -40 0 -53 39 -26 78 21 30 36 24 47
-17z m-2563 -16 c0 -24 -2 -25 -65 -25 -63 0 -65 1 -65 25 0 24 2 25 65 25 63
0 65 -1 65 -25z m-940 -25 l0 -40 -100 0 c-55 0 -100 4 -100 9 0 5 3 23 6 40
l7 31 93 0 94 0 0 -40z m230 10 l0 -30 -90 0 c-88 0 -90 1 -90 23 0 13 3 27 7
30 3 4 44 7 90 7 l83 0 0 -30z m264 21 c4 -5 3 -16 0 -25 -5 -13 -24 -16 -105
-16 -99 0 -99 0 -99 25 0 25 0 25 99 25 55 0 102 -4 105 -9z m234 -13 c-2 -16
-9 -22 -25 -21 -13 0 -45 1 -73 2 -43 1 -50 4 -50 21 0 18 7 20 76 20 72 0 75
-1 72 -22z m-980 -20 l-3 -33 -110 0 -110 0 -3 33 -3 32 116 0 116 0 -3 -32z
m3435 26 c3 -3 2 -14 -3 -23 -5 -9 -11 -24 -14 -34 -9 -28 -26 -10 -26 29 0
26 4 34 18 34 10 0 21 -3 25 -6z m-628 -49 l0 -40 -52 -3 -53 -3 0 46 0 46 53
-3 52 -3 0 -40z m-3085 5 l0 -30 -78 0 c-77 0 -78 0 -89 30 l-11 30 89 0 89 0
0 -30z m2928 -27 l3 -53 -49 0 -50 0 -6 45 c-4 25 -5 49 -1 54 3 6 27 9 53 8
l47 -2 3 -52z m-1313 -28 c0 -39 -1 -40 -36 -43 -35 -3 -36 -2 -42 34 -8 49
-2 56 41 52 36 -3 37 -4 37 -43z m189 23 c3 -13 6 -40 6 -60 l0 -38 -69 0 -69
0 -4 60 -3 60 66 0 c61 0 67 -2 73 -22z m450 -30 c11 -94 14 -89 -56 -86 -51
3 -62 6 -64 22 -3 21 -6 96 -5 109 1 4 27 7 60 7 l58 0 7 -52z m366 -8 l0 -61
-72 3 -73 3 -3 44 c-5 68 -2 71 78 71 l70 0 0 -60z m156 8 l-1 -53 -35 -1
c-54 -2 -60 3 -60 57 l0 49 49 0 49 0 -2 -52z m1021 26 c5 -16 -29 -27 -38
-12 -4 6 -5 16 -2 21 7 11 35 5 40 -9z m-1749 -4 l42 0 0 -55 c0 -41 -4 -57
-15 -61 -9 -4 -58 -3 -110 1 l-95 7 0 60 0 61 68 -6 c37 -4 86 -7 110 -7z
m382 -2 c0 -7 3 -29 6 -50 l6 -36 -71 -4 -71 -3 0 46 c0 25 3 49 7 52 12 13
123 8 123 -5z m1054 -24 c8 -20 -3 -44 -20 -44 -15 0 -29 43 -20 59 8 13 33 4
40 -15z m-2094 -29 l0 -45 -105 0 -105 0 0 45 0 45 105 0 105 0 0 -45z m-280
-10 c0 -44 -1 -46 -27 -41 -16 2 -52 5 -80 5 l-53 1 0 40 0 40 80 0 80 0 0
-45z m2270 -5 l0 -50 -66 0 -65 0 3 37 c3 39 7 41 121 62 4 0 7 -21 7 -49z
m-2972 -13 l3 -47 -95 0 c-95 0 -96 0 -96 24 0 14 4 36 10 50 9 24 12 25 92
23 l83 -2 3 -48z m232 3 l0 -50 -96 0 -97 0 7 38 c3 20 6 43 6 50 0 9 25 12
90 12 l90 0 0 -50z m225 10 l0 -35 -79 0 c-76 0 -79 1 -83 25 -6 43 1 47 84
46 l78 -1 0 -35z m3259 19 c14 -11 26 -25 26 -30 0 -5 -31 -9 -70 -9 -40 0
-70 4 -70 10 0 6 9 10 20 10 11 0 20 6 20 14 0 12 11 19 41 25 4 0 18 -8 33
-20z m-3984 -47 l0 -57 -77 3 c-43 2 -81 7 -86 11 -4 4 -4 28 -1 54 l7 47 78
0 79 0 0 -58z m-220 -12 c0 -55 -2 -60 -17 -51 -41 24 -53 40 -53 68 0 37 6
43 42 43 28 0 28 -1 28 -60z m3260 -4 c0 -48 0 -48 -91 -61 l-45 -7 -11 46
c-10 43 -9 47 11 51 11 2 30 6 41 8 11 3 37 5 58 6 l37 1 0 -44z m-1552 -75
c-3 -23 -7 -26 -36 -24 -63 2 -79 11 -86 44 -3 17 -4 35 -1 39 3 5 32 -1 66
-12 55 -18 60 -22 57 -47z m1332 19 l0 -50 -60 0 c-59 0 -60 1 -60 28 0 15 -3
37 -6 50 -6 21 -4 22 60 22 l66 0 0 -50z m855 41 c3 -5 1 -12 -5 -16 -5 -3
-10 -15 -10 -25 0 -10 -5 -22 -10 -25 -13 -8 -29 33 -22 57 5 19 37 25 47 9z
m-150 -20 c3 -5 1 -13 -5 -16 -15 -9 -43 3 -35 15 8 13 32 13 40 1z m-2245
-46 l0 -35 -60 2 c-49 2 -60 6 -60 19 0 41 11 49 66 49 l54 0 0 -35z m385 19
c9 -4 15 -19 15 -36 0 -29 0 -30 -42 -23 -72 12 -88 22 -88 51 0 26 1 26 50
20 28 -4 57 -9 65 -12z m923 -26 c3 -41 5 -40 -119 -52 l-56 -6 -7 41 c-4 22
-4 45 0 50 3 6 43 9 92 7 l87 -3 3 -37z m-1930 -5 l3 -33 -90 0 -91 0 0 35 0
36 88 -3 87 -3 3 -32z m210 -10 l3 -43 -90 0 -91 0 0 45 0 46 88 -3 87 -3 3
-42z m981 41 c28 -6 31 -10 31 -46 l0 -40 -67 7 c-38 4 -69 8 -71 10 -2 1 -6
19 -9 39 l-6 36 45 0 c25 0 60 -3 77 -6z m511 -39 l0 -45 -90 0 -90 0 0 40 0
39 63 4 c34 2 74 4 90 5 26 2 27 0 27 -43z m1540 20 c0 -22 -4 -25 -36 -25
-35 0 -64 18 -64 39 0 6 21 11 50 11 47 0 50 -2 50 -25z m-3476 -10 c-3 -58 3
-55 -99 -55 l-95 0 0 40 0 41 97 -3 c91 -3 98 -4 97 -23z m666 -5 l0 -30 -80
0 -80 0 0 30 0 30 80 0 80 0 0 -30z m1000 -15 l0 -45 -52 0 c-87 0 -98 6 -98
51 l0 39 75 0 75 0 0 -45z m1175 25 c0 -22 -29 -18 -33 3 -3 14 1 18 15 15 10
-2 18 -10 18 -18z m-3376 -36 c12 -15 21 -29 21 -33 0 -3 -26 -5 -57 -5 -57 2
-58 2 -61 33 -3 30 -2 31 37 31 31 0 44 -6 60 -26z m301 1 l0 -25 -110 0 -110
0 0 25 0 25 110 0 110 0 0 -25z m1210 -15 c29 -15 39 -26 37 -40 -5 -31 -19
-38 -54 -28 -30 8 -33 12 -33 48 0 22 2 40 5 40 3 0 24 -9 45 -20z m1748 -11
c4 -37 -27 -59 -91 -66 -51 -5 -56 -4 -72 21 -17 25 -17 27 0 46 20 23 43 28
110 26 46 -1 50 -3 53 -27z m-253 -21 c19 -9 25 -18 23 -36 -2 -20 -12 -28
-48 -38 -25 -8 -53 -11 -62 -8 -20 6 -32 37 -23 63 9 29 67 39 110 19z m571
-12 c3 -13 4 -35 2 -47 -3 -23 -8 -24 -80 -27 -76 -3 -78 -2 -78 20 0 34 10
42 65 60 69 23 84 22 91 -6z m-1906 -2 c27 -5 29 -9 24 -32 -9 -37 -9 -37 -62
-21 -40 13 -47 19 -50 43 -3 26 -2 28 27 22 17 -3 44 -9 61 -12z m2245 -9 c0
-13 -8 -21 -22 -23 -17 -3 -23 2 -23 16 0 10 3 22 7 26 13 13 38 1 38 -19z
m-2018 0 c8 -3 8 -14 1 -45 l-11 -42 -66 7 c-36 4 -69 9 -73 12 -5 2 -8 22 -8
43 l0 39 73 -5 c39 -3 77 -7 84 -9z m928 4 c13 -19 -4 -56 -32 -68 -15 -7 -48
-15 -73 -18 -52 -6 -66 4 -76 55 -5 24 -2 31 12 35 37 9 163 7 169 -4z m940
-19 c0 -21 -5 -26 -31 -28 -20 -2 -36 4 -48 17 -25 28 -11 43 37 39 37 -3 42
-6 42 -28z m-2899 5 c4 -8 3 -26 0 -40 -6 -24 -10 -25 -74 -25 -70 0 -92 10
-92 42 0 26 29 37 98 38 47 0 64 -4 68 -15z m524 -20 l0 -36 -92 3 c-80 3 -93
5 -96 21 -8 42 3 47 98 47 l90 0 0 -35z m-255 -5 c0 -25 -1 -25 -103 -28 -88
-2 -103 0 -109 14 -12 32 25 45 122 42 89 -3 90 -3 90 -28z m946 20 c39 0 39
0 39 -40 l0 -40 -72 6 c-40 4 -76 9 -80 13 -4 4 -11 22 -14 40 l-7 34 48 -6
c26 -4 65 -7 86 -7z m-1416 -20 c12 -37 -11 -50 -86 -50 -59 0 -70 3 -79 21
-20 36 3 49 86 49 64 0 73 -2 79 -20z m1661 6 c1 0 5 -16 9 -33 l7 -33 -81 0
-81 0 0 41 0 40 73 -7 c39 -3 73 -7 73 -8z m260 -10 c9 -35 0 -43 -59 -56 -94
-21 -137 -3 -123 53 6 27 8 27 91 27 81 0 85 -1 91 -24z m788 -12 c3 -9 6 -28
6 -44 0 -27 -3 -29 -52 -35 -98 -12 -122 -11 -126 6 -6 29 31 60 88 73 74 18
77 18 84 0z m-3176 -21 c-3 -28 -3 -28 -83 -28 -80 0 -80 0 -83 28 l-3 27 86
0 86 0 -3 -27z m244 2 c-4 -25 -6 -25 -98 -25 -52 0 -94 3 -94 6 0 3 5 14 10
25 9 17 22 19 99 19 l88 0 -5 -25z m1115 -22 c43 -15 53 -22 53 -41 0 -19 -4
-22 -27 -16 -16 3 -47 12 -70 21 -35 12 -43 19 -43 40 0 20 4 24 18 20 9 -4
41 -14 69 -24z m1612 -25 c12 -31 1 -41 -63 -63 -63 -22 -86 -12 -86 36 0 25
5 29 43 37 73 17 97 14 106 -10z m-1779 -29 c0 -35 -21 -46 -59 -33 -54 19
-35 73 24 66 31 -4 35 -7 35 -33z m359 29 c51 -11 62 -26 42 -56 -6 -10 -17
-10 -57 4 -59 19 -67 26 -58 47 7 20 8 20 73 5z m-496 -14 c21 -7 22 -40 1
-48 -9 -3 -54 -6 -100 -6 l-84 0 0 36 0 37 83 -7 c45 -4 90 -9 100 -12z m739
-20 c-9 -65 -7 -63 -68 -48 -67 15 -68 16 -60 47 5 23 9 24 68 22 55 -2 63 -5
60 -21z m968 7 c22 -43 13 -59 -40 -70 -76 -16 -117 -14 -140 9 -19 19 -27 60
-13 73 3 4 46 7 94 7 77 0 90 -2 99 -19z m-2808 -8 c37 -34 10 -63 -59 -63
-41 0 -63 14 -63 40 0 9 5 21 12 28 18 18 88 15 110 -5z m599 7 c21 -12 25
-40 7 -58 -19 -19 -82 -14 -106 8 -22 21 -28 41 -15 53 10 11 92 8 114 -3z
m248 -1 c63 -22 20 -46 -85 -48 -62 -1 -74 5 -87 42 -6 15 1 17 67 17 40 0 87
-5 105 -11z m1235 3 c2 -4 1 -23 -3 -42 l-7 -35 -76 0 c-42 0 -80 3 -83 7 -4
4 -4 23 -1 43 l7 35 79 0 c43 0 81 -3 84 -8z m1284 -19 c-3 -25 -8 -29 -46
-34 -24 -3 -45 -2 -48 2 -5 9 65 59 84 59 9 0 12 -10 10 -27z m-2933 -18 c0
-30 0 -30 -66 -33 -73 -3 -119 10 -119 33 0 24 38 34 115 32 l70 -2 0 -30z
m2112 20 c14 -10 19 -22 16 -35 -10 -37 -42 -50 -125 -50 -67 0 -79 3 -88 20
-8 15 -7 27 5 50 15 29 17 30 93 30 53 0 84 -5 99 -15z m-2333 -18 c16 -27
-17 -47 -77 -47 -57 0 -87 14 -87 40 0 25 14 29 89 27 50 -2 66 -6 75 -20z
m2074 -31 c3 -47 2 -48 -20 -42 -13 3 -47 6 -75 6 l-53 0 0 45 0 46 73 -3 72
-3 3 -49z m-947 16 c34 -31 33 -52 -3 -52 -39 0 -74 51 -51 73 11 12 22 8 54
-21z m1781 -19 c10 -9 18 -22 18 -30 0 -16 -79 -52 -124 -56 -28 -2 -31 1 -34
29 -4 37 9 49 68 62 25 5 47 10 49 11 3 1 13 -6 23 -16z m336 0 c-2 -10 -13
-19 -26 -21 -17 -3 -22 2 -22 17 0 16 6 21 26 21 19 0 25 -5 22 -17z m-1940 1
c53 -11 50 -94 -4 -94 -38 0 -94 27 -94 45 0 48 29 63 98 49z m-318 -43 c0
-26 -15 -41 -46 -47 -64 -12 -104 12 -72 44 14 14 118 16 118 3z m2087 -12 c5
-24 -11 -36 -55 -42 -51 -6 -52 7 -2 41 36 24 53 24 57 1z m-2754 -16 c18 -41
3 -53 -63 -53 -34 0 -70 5 -81 10 -17 10 -26 49 -14 61 2 3 37 5 76 4 64 0 73
-2 82 -22z m1257 8 c16 -31 12 -59 -10 -66 -45 -14 -160 21 -160 48 0 27 25
37 92 37 56 0 69 -3 78 -19z m1135 -11 c0 -22 -51 -52 -99 -57 -48 -6 -96 10
-96 31 1 27 21 38 86 45 74 8 109 1 109 -19z m-1901 3 c11 -29 -12 -38 -109
-41 -80 -3 -96 -1 -101 12 -15 39 1 46 105 46 83 0 100 -3 105 -17z m-699 -5
c28 -13 33 -43 9 -52 -9 -3 -44 -6 -79 -6 -35 0 -70 3 -79 6 -16 6 -22 45 -9
57 11 12 130 8 158 -5z m449 -4 c11 -28 -4 -34 -87 -34 -89 0 -111 8 -101 33
9 24 179 25 188 1z m-676 -6 c19 -19 14 -28 -21 -43 -49 -20 -95 -6 -118 37
-9 17 -5 18 59 18 39 0 73 -5 80 -12z m1870 -4 c43 -30 23 -54 -46 -54 -74 0
-103 25 -70 58 17 17 89 15 116 -4z m706 -3 c10 -11 16 -28 14 -38 -3 -16 -15
-18 -94 -21 -73 -2 -94 0 -104 13 -27 32 30 58 141 64 14 0 34 -8 43 -18z
m-1287 -27 c33 -5 42 -11 46 -30 6 -35 -5 -37 -73 -18 -58 16 -60 18 -60 51 0
32 1 33 23 19 12 -8 41 -18 64 -22z m831 -2 c21 -28 8 -37 -59 -40 -113 -6
-169 18 -123 53 26 19 164 9 182 -13z m234 11 c40 -36 30 -41 -119 -59 -60 -7
-75 7 -55 52 11 22 17 24 83 24 53 0 77 -4 91 -17z m-1249 -63 c8 -30 -16 -42
-70 -36 -60 7 -52 3 71 -33 88 -27 104 -35 140 -74 47 -50 101 -74 271 -117
274 -70 647 -81 975 -29 256 40 588 138 831 245 45 20 83 34 85 31 5 -5 -170
-129 -216 -152 -19 -10 -111 -44 -205 -76 -93 -32 -161 -58 -150 -58 12 -1 62
13 113 29 97 31 152 37 197 20 40 -15 28 -41 -30 -63 -38 -15 -94 -21 -240
-28 -210 -10 -235 -13 -235 -32 0 -43 69 -47 240 -16 120 22 228 21 256 -2 26
-22 16 -54 -21 -72 -27 -13 -64 -17 -153 -17 -64 0 -216 -5 -337 -10 -181 -9
-232 -14 -290 -33 l-70 -22 330 -6 c290 -6 387 -12 510 -35 23 -4 44 3 88 30
50 30 57 32 57 16 0 -51 -82 -152 -112 -139 -2 1 -59 -28 -128 -65 -126 -65
-372 -168 -485 -201 -133 -40 -262 -61 -322 -54 -157 20 -379 22 -534 4 -155
-17 -156 -17 -265 5 -139 28 -250 60 -389 111 -122 46 -348 158 -392 196 -15
14 -64 50 -108 81 -105 72 -98 65 -105 120 -5 45 -6 47 -35 44 -59 -4 -142 45
-172 101 -21 41 -9 44 38 11 23 -16 52 -27 64 -26 20 3 638 -32 775 -43 64 -6
65 -5 45 13 -18 18 -54 21 -390 36 -529 23 -481 16 -538 84 l-47 57 210 3
c115 1 210 6 210 10 0 5 -11 19 -25 32 l-25 23 -225 -6 -225 -6 -15 29 c-8 16
-15 31 -15 35 0 3 198 5 439 5 l440 0 120 -147 c66 -82 127 -157 134 -167 9
-12 20 -17 31 -13 15 6 10 16 -31 68 -26 34 -67 83 -90 109 -47 52 -103 151
-103 181 0 14 -10 20 -40 25 -30 5 -40 11 -40 25 0 17 9 19 99 19 90 0 99 -2
104 -20z m378 3 c63 -4 67 -6 72 -31 7 -35 1 -43 -26 -37 -12 2 -48 9 -79 15
-50 10 -58 15 -67 42 -10 29 -10 30 12 23 12 -5 52 -10 88 -12z m1459 -8 c31
-28 14 -45 -44 -45 -28 0 -63 -6 -78 -14 -25 -13 -28 -13 -33 4 -11 34 5 69
33 73 46 8 103 -1 122 -18z m-2638 -9 c16 -23 0 -29 -68 -27 -94 3 -123 13
-124 45 0 12 184 -4 192 -18z m318 -1 c0 -13 -14 -15 -87 -13 -58 2 -88 7 -91
16 -3 9 19 12 87 12 75 0 91 -3 91 -15z m2111 5 c30 -17 24 -57 -11 -75 -73
-37 -190 -26 -190 18 0 38 13 45 95 55 44 5 81 10 83 11 2 0 12 -4 23 -9z
m-2706 -9 c7 -13 -2 -18 -48 -26 -33 -7 -37 -5 -37 14 0 18 6 21 39 21 22 0
42 -4 46 -9z m1289 -50 c238 -69 455 -116 602 -130 172 -16 780 35 943 80 79
21 106 15 85 -18 -13 -21 -33 -27 -230 -63 -394 -71 -646 -81 -929 -36 -354
57 -595 130 -595 182 0 19 7 18 124 -15z m434 15 l52 1 0 -34 0 -34 -43 6
c-76 12 -112 21 -109 28 1 4 2 16 2 28 0 17 4 19 23 12 12 -4 46 -8 75 -7z
m242 -33 l0 -35 -42 7 c-69 10 -78 15 -78 38 0 20 5 22 60 23 l60 1 0 -34z
m153 20 c44 -5 47 -8 47 -34 0 -29 0 -29 -65 -29 l-65 0 0 41 c0 35 3 40 18
34 9 -3 38 -9 65 -12z m328 -2 c22 -18 22 -19 3 -29 -10 -5 -66 -12 -124 -13
-94 -4 -105 -2 -108 14 -8 42 3 47 107 47 81 0 103 -3 122 -19z m651 -5 c4
-20 -1 -27 -24 -37 -32 -13 -58 0 -58 31 0 24 9 30 46 30 26 0 33 -5 36 -24z
m388 -319 c0 -2 -17 -19 -37 -38 l-38 -34 34 38 c33 34 41 42 41 34z m-85 -77
c-7 -12 -153 -123 -175 -134 -15 -7 -6 1 109 91 71 55 75 58 66 43z m-1165
-584 c340 -51 701 -140 1230 -303 319 -98 532 -136 762 -137 l158 -1 0 -289 0
-289 -272 6 c-365 7 -435 19 -852 153 -619 200 -908 273 -1211 309 -162 19
-227 19 -387 0 -245 -29 -473 -90 -893 -241 -368 -131 -416 -147 -621 -193
-270 -60 -382 -74 -559 -68 -101 3 -169 11 -207 22 l-58 18 0 278 c0 153 3
280 8 283 4 2 30 0 57 -6 78 -16 355 -13 480 7 164 24 280 56 590 160 467 157
809 247 1110 294 109 17 164 20 345 16 120 -2 261 -11 320 -19z m-3250 -160
c158 -47 353 -74 558 -77 61 -1 112 -5 112 -9 0 -11 -86 -65 -150 -93 -62 -28
-196 -60 -211 -52 -5 4 -9 -80 -9 -219 l0 -226 -31 0 c-119 0 -487 94 -497
127 -1 6 54 70 124 143 133 137 131 132 82 160 -30 18 -107 135 -153 234 -25
53 -45 98 -45 101 0 3 30 -10 68 -29 37 -19 106 -45 152 -60z m5906 -40 c-41
-84 -71 -130 -115 -176 l-60 -63 122 -129 c67 -71 122 -134 122 -141 0 -31
-371 -127 -494 -127 l-31 0 0 225 0 225 -33 0 c-45 0 -141 26 -207 56 -61 28
-130 73 -130 84 0 4 53 8 118 9 207 3 404 32 572 87 58 19 123 44 145 57 22
13 42 19 43 15 2 -5 -21 -60 -52 -122z"/>
<path d="M3565 6719 c-66 -3 -130 -7 -142 -8 -20 -1 -23 -6 -22 -43 0 -35 2
-39 9 -22 11 28 48 54 77 54 20 0 23 -5 23 -37 0 -21 3 -88 6 -148 7 -109 7
-111 -17 -123 -23 -12 -22 -12 10 -7 18 3 57 5 85 6 38 0 46 2 30 9 -17 7 -22
20 -27 77 -4 37 -7 104 -7 148 l0 81 36 -4 c27 -3 40 -12 55 -36 l19 -31 0 42
c0 23 -3 43 -7 45 -5 2 -62 0 -128 -3z"/>
<path d="M3812 6709 c16 -13 16 -24 3 -154 -8 -77 -14 -141 -14 -143 -1 -1
-11 -6 -23 -11 -15 -5 23 -12 117 -20 146 -13 154 -12 155 31 0 9 3 25 7 35 4
10 -6 3 -23 -16 -23 -25 -40 -34 -74 -38 -69 -7 -82 8 -74 85 5 42 11 62 20
62 21 0 54 -37 55 -62 2 -30 17 77 17 122 l0 35 -10 -30 c-12 -34 -25 -45 -50
-45 -15 0 -18 9 -18 54 0 80 3 84 55 76 51 -8 84 -33 86 -64 1 -15 3 -13 9 9
18 69 27 65 -175 81 -68 5 -78 4 -63 -7z"/>
<path d="M3230 6690 c-24 -5 -28 -8 -12 -9 28 -1 35 -19 56 -144 14 -82 14
-103 4 -125 -25 -51 -104 -66 -127 -24 -5 10 -19 71 -31 137 -21 115 -21 120
-3 133 17 13 16 14 -7 9 -14 -3 -46 -9 -72 -12 -44 -7 -45 -8 -29 -24 11 -11
24 -57 36 -127 16 -92 23 -113 46 -136 15 -16 38 -28 51 -29 78 -4 121 13 149
57 20 32 20 36 4 126 -8 51 -18 105 -21 119 -3 17 1 32 11 43 15 15 15 16 -2
15 -10 -1 -34 -5 -53 -9z"/>
<path d="M2741 6573 l-133 -45 6 -31 c4 -17 11 -36 17 -42 7 -6 10 -6 9 0 -7
37 2 56 35 72 19 9 36 15 39 12 8 -9 86 -255 86 -271 0 -9 -8 -22 -17 -28 -11
-7 -12 -9 -3 -6 8 3 45 15 83 26 37 12 67 24 67 27 0 2 -8 2 -19 -2 -26 -8
-34 6 -81 149 -33 103 -39 131 -28 137 24 15 61 9 86 -13 22 -20 24 -20 19 -5
-4 11 -10 30 -13 43 -3 13 -9 23 -13 23 -3 -1 -66 -22 -140 -46z"/>
<path d="M4417 6605 c-76 -26 -117 -86 -117 -170 0 -95 63 -157 166 -163 58
-4 69 -1 104 23 45 31 80 95 80 146 0 58 -38 120 -90 145 -61 30 -98 35 -143
19z m108 -19 c25 -11 36 -23 43 -48 15 -59 -18 -177 -66 -230 -21 -24 -84 -24
-106 1 -28 31 -30 83 -7 158 22 70 41 101 76 121 25 14 20 14 60 -2z"/>
<path d="M4788 6503 c21 -8 13 -40 -39 -155 -58 -129 -66 -141 -91 -135 -30 8
-21 -2 17 -18 114 -49 110 -48 97 -32 -10 12 -7 26 14 76 15 33 32 61 39 61
25 0 48 -38 42 -70 -4 -16 -5 -30 -2 -30 5 0 51 101 60 132 l7 23 -17 -22
c-11 -16 -26 -23 -50 -23 -19 0 -36 3 -38 8 -2 4 9 35 25 69 l30 63 31 -16
c52 -27 77 -55 77 -88 l1 -31 15 35 c9 19 16 38 17 42 2 8 -228 119 -241 117
-4 0 -1 -3 6 -6z"/>
<path d="M2445 6455 c-55 -26 -65 -34 -46 -37 20 -2 34 -25 83 -132 56 -122
58 -130 42 -147 -22 -24 -18 -24 42 4 82 39 100 48 81 43 -26 -8 -43 17 -103
150 -49 110 -52 120 -37 136 20 22 22 23 -62 -17z"/>
<path d="M2170 6310 c-63 -38 -119 -71 -123 -72 -7 -3 29 -78 37 -78 1 0 0 15
-2 34 -3 27 1 37 23 55 15 11 31 21 34 21 4 0 40 -56 80 -125 73 -125 73 -126
55 -148 l-19 -21 25 15 c14 9 46 28 73 43 26 15 47 29 47 30 0 2 -10 2 -22 2
-17 -1 -36 24 -95 124 -73 124 -73 124 -50 137 30 17 53 16 83 -4 l25 -16 -21
36 c-12 21 -25 37 -28 37 -4 -1 -59 -32 -122 -70z"/>
<path d="M5202 6255 c-25 -40 -25 -40 13 -21 17 9 36 11 48 7 46 -17 42 -33
-32 -143 -81 -120 -94 -133 -118 -124 -23 9 -11 -1 55 -47 59 -42 67 -45 51
-19 -10 16 0 37 71 140 82 119 83 120 107 105 27 -18 38 -51 28 -85 -6 -18 -1
-15 19 11 14 19 26 37 26 40 0 5 -224 163 -239 168 -3 2 -16 -13 -29 -32z"/>
<path d="M1940 6153 c0 -5 -20 -18 -44 -27 -55 -21 -76 -45 -83 -93 -4 -29 0
-44 16 -65 28 -35 67 -42 150 -28 84 14 111 4 111 -40 0 -38 -41 -70 -90 -70
-23 0 -48 8 -64 21 -35 27 -33 18 7 -36 34 -47 47 -55 47 -30 0 8 18 22 40 31
87 35 119 126 64 181 -25 25 -27 26 -126 19 -104 -7 -128 -1 -128 33 0 50 90
79 138 45 12 -8 22 -12 22 -7 -1 13 -60 78 -60 66z"/>
<path d="M5557 6041 c6 -22 -20 -56 -141 -186 -44 -46 -59 -56 -68 -47 -7 7
-16 12 -20 12 -5 0 39 -43 98 -95 l107 -94 27 19 c15 10 33 27 41 36 13 16 12
16 -8 6 -34 -18 -77 -14 -114 11 -47 31 -47 54 0 107 38 43 40 44 57 27 16
-15 17 -21 6 -49 -6 -17 -10 -33 -9 -35 2 -1 27 24 56 57 29 33 50 60 48 60
-3 0 -17 -6 -33 -14 -19 -11 -33 -12 -46 -5 -26 14 -23 24 24 75 l42 46 38
-41 c39 -41 48 -77 26 -99 -7 -7 -8 -12 -2 -12 6 0 21 14 33 31 l24 32 -59 55
c-138 131 -133 127 -127 103z"/>
<path d="M1661 5936 c-32 -33 -32 -33 -7 -29 20 4 37 -6 86 -53 33 -31 58 -59
56 -62 -3 -2 -61 2 -131 9 l-126 13 -40 -41 -40 -40 31 5 c27 4 39 -3 96 -59
36 -35 79 -81 95 -101 26 -32 29 -40 18 -60 -8 -16 1 -11 30 17 46 44 50 51
20 34 -20 -10 -30 -2 -113 80 -70 71 -85 91 -66 87 14 -3 70 -10 126 -16 56
-5 128 -12 160 -16 l59 -6 -114 115 c-93 94 -112 118 -106 136 9 28 5 27 -34
-13z"/>
<path d="M5732 5694 c-124 -74 -101 -250 41 -309 24 -10 43 -12 54 -7 11 7 5
11 -25 15 -28 5 -49 17 -71 42 -51 58 -38 111 45 184 85 75 175 64 204 -24 9
-26 8 -41 -4 -69 -8 -20 -12 -36 -9 -36 3 0 23 16 44 35 31 28 35 35 20 35
-13 0 -23 11 -31 34 -37 112 -167 161 -268 100z"/>
<path d="M1365 5618 c-22 -28 -44 -58 -49 -67 -8 -14 -8 -14 8 -2 15 13 21 13
39 1 36 -22 217 -172 217 -179 0 -4 -3 -11 -7 -17 -5 -5 11 11 35 36 23 25 48
54 54 65 10 19 10 19 -9 3 -19 -17 -21 -17 -69 20 -151 114 -185 146 -179 169
3 13 4 23 3 23 -2 -1 -21 -24 -43 -52z"/>
<path d="M6110 5442 c0 -17 -22 -37 -102 -88 -132 -86 -143 -91 -165 -73 -14
11 -13 7 4 -21 11 -19 30 -51 42 -70 18 -30 21 -32 21 -13 0 16 16 33 56 60
l56 37 18 -24 c10 -13 25 -36 34 -51 l16 -27 -59 -36 c-35 -22 -65 -34 -75
-30 -11 4 -5 -13 20 -55 39 -65 45 -72 37 -42 -4 15 19 34 116 95 66 42 126
76 134 76 7 0 19 -6 26 -12 7 -7 -2 12 -21 42 -19 30 -40 64 -47 75 -10 18
-11 18 -6 -6 6 -22 0 -29 -45 -57 -28 -18 -55 -32 -60 -32 -9 0 -60 80 -60 93
0 3 23 20 52 37 44 27 55 30 71 20 19 -11 19 -11 -1 22 -11 18 -29 49 -41 68
-18 30 -21 32 -21 12z"/>
<path d="M1077 5188 c-37 -67 -59 -113 -48 -104 19 18 24 16 139 -48 127 -70
148 -87 136 -108 -4 -7 -3 -9 2 -5 4 4 36 58 71 120 l62 112 -37 32 c-41 35
-52 36 -28 1 29 -41 12 -136 -27 -151 -18 -7 -117 51 -117 69 0 16 41 29 70
21 40 -10 18 9 -53 47 -61 33 -69 35 -49 14 21 -23 30 -72 15 -81 -5 -2 -34
11 -65 30 l-58 34 19 38 c22 42 66 67 103 56 14 -4 7 4 -17 19 -22 14 -42 26
-45 26 -3 0 -35 -55 -73 -122z"/>
<path d="M6327 5053 c-5 -26 -18 -34 -114 -75 -134 -57 -134 -57 -155 -46 -22
11 -22 10 1 -43 19 -42 19 -42 23 -14 3 27 13 34 111 77 59 26 107 44 107 39
0 -4 -36 -74 -79 -157 -44 -82 -76 -150 -72 -152 4 -1 64 22 133 53 123 54
178 67 178 43 0 -6 2 -9 5 -6 3 3 -3 25 -14 49 -15 34 -20 39 -20 21 -1 -19
-15 -30 -75 -58 -41 -19 -79 -34 -85 -34 -5 0 7 30 27 68 21 37 48 88 62 114
l24 46 -19 44 c-26 59 -31 64 -38 31z"/>
<path d="M974 4921 c-19 -12 -39 -39 -56 -77 -42 -93 -70 -171 -55 -151 8 9
19 17 25 17 16 0 245 -91 260 -103 7 -6 11 -19 9 -29 -7 -25 2 -22 12 5 46
117 50 131 36 113 -14 -19 -16 -19 -76 5 -34 13 -61 29 -61 34 0 6 42 21 92
35 l92 25 20 49 c12 32 14 45 6 39 -7 -6 -42 -19 -78 -28 -36 -9 -73 -18 -82
-21 -13 -4 -18 0 -18 16 0 34 -19 61 -55 76 -42 17 -34 18 -71 -5z m64 -78
c12 -10 22 -25 23 -33 4 -36 -2 -61 -16 -66 -14 -6 -135 36 -135 46 0 3 9 20
20 38 16 26 26 32 54 32 18 0 43 -8 54 -17z"/>
<path d="M6315 4626 c-100 -44 -128 -169 -61 -271 21 -33 89 -65 136 -65 50 0
113 32 141 71 32 46 34 147 3 199 -42 73 -138 102 -219 66z m180 -70 c34 -14
53 -50 46 -86 -12 -63 -165 -119 -259 -94 -12 4 -30 20 -38 36 -31 59 22 118
130 144 68 16 81 16 121 0z"/>
<path d="M871 4538 c-57 -29 -78 -59 -93 -131 -12 -55 -11 -61 12 -105 30 -56
64 -82 121 -93 122 -23 223 78 206 204 -15 110 -147 177 -246 125z m128 -79
c54 -16 101 -59 101 -92 0 -33 -34 -73 -67 -80 -41 -9 -143 11 -188 36 -65 36
-73 110 -17 142 30 17 101 15 171 -6z"/>
<path d="M6598 4210 c-2 -7 -61 -18 -147 -28 -140 -16 -144 -16 -158 3 -14 19
-15 18 -9 -10 3 -16 11 -81 17 -142 l12 -113 61 1 c57 1 59 1 26 10 -19 6 -44
20 -56 33 -22 25 -40 104 -27 117 7 7 232 39 276 39 9 0 22 -10 27 -22 6 -16
7 -2 3 42 -5 62 -17 94 -25 70z"/>
<path d="M964 4118 c64 -43 71 -54 69 -109 -1 -29 -6 -56 -11 -61 -13 -13
-275 12 -288 28 -10 12 -13 11 -18 -8 -9 -37 -7 -115 3 -99 7 11 33 13 141 7
149 -8 159 -11 169 -39 5 -14 10 14 15 78 4 55 9 121 13 146 l5 46 -38 7 c-22
4 -48 9 -59 12 -19 4 -19 4 -1 -8z"/>
<path d="M6431 3839 c-77 -23 -120 -83 -121 -167 0 -61 17 -99 60 -136 116
-97 280 -15 280 140 0 113 -110 195 -219 163z m163 -103 c57 -37 56 -107 -1
-137 -39 -21 -179 -18 -221 4 -65 35 -66 104 -1 139 44 25 182 21 223 -6z"/>
<path d="M930 3760 c0 -4 16 -12 35 -19 42 -15 54 -35 58 -97 l2 -48 -40 -7
c-22 -4 -87 -8 -145 -10 -102 -2 -105 -1 -117 22 -12 23 -13 22 -13 -16 0 -22
3 -57 6 -77 6 -32 8 -35 21 -22 9 8 34 14 62 14 26 0 89 3 139 6 90 7 92 7
102 -17 8 -18 9 -5 5 55 -3 43 -5 109 -5 147 l0 67 -55 4 c-30 1 -55 1 -55 -2z"/>
<path d="M6362 3403 c-71 -35 -102 -99 -102 -214 l0 -67 45 -6 c28 -5 50 -15
59 -27 13 -19 14 -17 21 28 3 26 9 59 12 73 6 23 5 24 -11 8 -17 -18 -60 -16
-98 4 -20 10 -16 57 8 95 32 51 167 50 246 -2 73 -49 58 -146 -30 -190 l-43
-22 56 -10 c55 -10 65 -7 44 14 -7 7 -5 21 10 48 57 107 25 221 -73 266 -50
23 -101 24 -144 2z"/>
<path d="M982 3387 c42 -20 67 -47 79 -89 13 -50 3 -64 -58 -73 -25 -4 -52 -9
-59 -12 -26 -10 -16 44 12 66 23 18 24 21 8 21 -34 -1 -140 -28 -113 -29 26
-1 59 -28 59 -49 0 -14 -41 -25 -95 -26 l-40 -1 -3 50 c-3 46 -1 52 29 78 37
30 36 31 -26 16 -42 -11 -43 -12 -35 -42 5 -18 16 -77 26 -131 13 -76 19 -95
25 -78 5 12 10 22 11 22 2 0 63 11 137 24 139 25 161 25 161 -2 0 -8 2 -13 5
-11 2 3 -7 65 -20 139 -14 73 -25 135 -25 137 0 1 -24 3 -52 2 -49 -1 -51 -1
-26 -12z"/>
<path d="M819 2935 c14 -39 17 -42 22 -23 5 22 9 23 73 20 37 -2 88 -7 114
-10 l45 -7 -83 -73 c-80 -69 -110 -86 -110 -60 0 6 -2 9 -5 6 -3 -3 4 -36 17
-73 12 -38 24 -62 26 -54 7 23 30 46 151 152 94 84 111 102 95 107 -11 4 -82
13 -159 20 -77 6 -153 18 -169 26 -16 8 -30 14 -31 14 -2 0 5 -20 14 -45z"/>
<path d="M6176 2902 c-10 -31 -21 -64 -24 -72 -3 -9 1 -8 10 4 14 18 16 18 70
1 46 -15 66 -29 105 -74 64 -73 94 -117 86 -125 -3 -3 -2 -6 4 -6 6 0 14 11
17 24 3 13 9 32 13 43 6 16 5 16 -10 4 -15 -12 -21 -11 -43 10 -14 13 -40 41
-57 62 -36 46 -31 52 51 62 30 4 61 9 69 12 7 3 16 -4 21 -17 7 -20 11 -15 27
36 10 33 20 66 23 74 5 12 3 13 -9 3 -18 -15 -158 -43 -212 -43 -44 0 -101 22
-113 43 -7 12 -14 1 -28 -41z"/>
<path d="M1493 1949 c8 -19 22 -50 32 -70 17 -35 17 -36 -15 -98 -17 -35 -30
-65 -27 -67 2 -2 31 7 65 21 76 31 83 31 157 1 33 -14 61 -23 63 -22 1 2 -10
32 -26 67 l-29 64 29 64 c16 35 27 65 25 67 -2 2 -34 -8 -71 -23 l-67 -27 -57
21 c-31 12 -65 24 -75 28 -17 7 -17 6 -4 -26z"/>
<path d="M5600 1920 c16 -33 30 -65 30 -72 0 -7 -13 -41 -30 -75 -16 -35 -28
-63 -26 -63 1 0 31 11 66 25 78 31 83 31 156 1 32 -13 60 -21 62 -16 2 5 -8
31 -22 59 -14 28 -26 57 -26 66 0 9 12 38 26 66 14 28 24 54 22 59 -2 5 -30
-3 -62 -16 -74 -30 -78 -30 -154 1 -34 14 -64 25 -67 25 -3 0 8 -27 25 -60z"/>
<path d="M2130 1507 c-34 -13 -80 -36 -70 -37 3 0 34 11 70 25 36 13 58 24 50
24 -8 0 -31 -6 -50 -12z"/>
<path d="M5200 1495 c36 -13 67 -25 70 -24 15 0 -70 38 -100 43 -22 4 -11 -3
30 -19z"/>
<path d="M2220 1471 c-36 -11 -88 -39 -95 -52 -4 -6 8 -3 26 7 19 9 59 25 89
35 34 10 45 17 30 17 -14 0 -36 -3 -50 -7z"/>
<path d="M5090 1462 c30 -10 70 -26 89 -36 18 -10 30 -13 26 -7 -11 19 -82 50
-127 56 l-43 6 55 -19z"/>
<path d="M2295 1426 c-49 -16 -102 -42 -110 -56 -4 -6 10 -3 32 6 21 9 70 27
108 39 51 17 62 23 40 24 -16 0 -48 -6 -70 -13z"/>
<path d="M4985 1422 c33 -11 84 -29 114 -41 38 -15 51 -18 42 -8 -19 24 -103
55 -161 61 l-55 6 60 -18z"/>
<path d="M2400 1386 c-59 -16 -108 -40 -145 -71 -29 -24 -27 -24 40 6 39 17
106 41 150 54 70 21 75 24 40 24 -22 0 -60 -6 -85 -13z"/>
<path d="M4858 1385 c29 -8 97 -33 150 -55 73 -29 91 -34 72 -18 -48 41 -147
80 -213 84 l-62 4 53 -15z"/>
<path d="M2530 1350 c-85 -15 -198 -67 -229 -104 -9 -10 10 -5 50 13 56 25
214 79 274 94 33 8 -47 5 -95 -3z"/>
<path d="M4750 1339 c80 -20 189 -60 255 -91 l40 -19 -30 26 c-46 39 -143 82
-216 94 -105 18 -133 12 -49 -10z"/>
<path d="M2620 1305 c-84 -17 -164 -47 -224 -85 -59 -38 -55 -47 8 -20 98 41
278 96 376 113 14 2 -2 4 -35 5 -33 0 -89 -6 -125 -13z"/>
<path d="M4550 1314 c99 -20 240 -61 365 -108 66 -24 69 -25 45 -4 -68 58
-218 107 -350 113 -47 2 -74 2 -60 -1z"/>
<path d="M2770 5534 c0 -3 14 -10 31 -16 37 -13 48 -35 235 -470 65 -153 122
-278 127 -278 9 0 20 23 187 398 125 279 151 326 192 343 52 21 28 29 -92 29
-66 0 -120 -2 -120 -5 0 -2 18 -9 40 -15 45 -12 65 -40 55 -78 -9 -38 -179
-422 -186 -422 -8 0 -199 446 -199 464 0 21 23 36 57 36 18 0 33 5 33 10 0 6
-67 10 -180 10 -99 0 -180 -2 -180 -6z"/>
<path d="M3610 5530 c0 -5 16 -10 35 -10 22 0 43 -8 55 -20 19 -19 20 -33 20
-334 0 -353 1 -348 -75 -365 -28 -6 19 -9 165 -9 113 0 188 4 168 8 -21 4 -47
15 -58 25 -19 17 -20 31 -20 334 0 356 1 361 66 361 19 0 34 5 34 10 0 6 -72
10 -195 10 -123 0 -195 -4 -195 -10z"/>
<path d="M4081 5438 c1 -100 1 -102 15 -68 40 97 67 119 153 127 39 4 65 2 69
-5 4 -5 6 -157 4 -336 -3 -325 -3 -326 -25 -338 -12 -6 -35 -15 -52 -19 -16
-4 60 -7 170 -7 147 0 189 3 158 9 -23 6 -47 17 -55 26 -10 13 -13 84 -13 342
l0 326 67 0 c63 0 69 -2 102 -34 20 -19 41 -51 47 -70 22 -68 29 -56 29 47 l0
102 -335 0 -335 0 1 -102z"/>
<path d="M3160 2070 c54 -65 58 -67 131 -87 57 -14 69 -15 108 -2 25 8 46 19
48 25 2 7 -29 18 -78 27 -44 9 -118 32 -164 50 l-84 34 39 -47z"/>
<path d="M2725 1876 c-11 -8 -39 -19 -63 -26 l-42 -13 42 -19 c32 -15 56 -18
97 -15 65 7 73 13 43 38 l-24 19 26 10 c14 5 26 12 26 15 0 11 -87 4 -105 -9z"/>
<path d="M2897 1701 c-38 -10 -71 -22 -75 -25 -3 -4 37 -4 90 0 57 4 135 2
190 -5 130 -16 246 -22 228 -11 -22 12 -228 50 -302 55 -44 4 -84 -1 -131 -14z"/>
<path d="M3686 1709 c-87 -4 -160 -10 -163 -12 -22 -22 533 -30 585 -8 17 7
32 17 32 22 0 10 -226 9 -454 -2z"/>
<path d="M3579 1631 c21 -14 172 -24 212 -16 29 7 31 9 14 16 -29 11 -244 11
-226 0z"/>
<path d="M2890 1620 c8 -5 49 -9 90 -9 51 0 69 3 55 9 -29 12 -164 12 -145 0z"/>
<path d="M3678 1553 c34 -2 90 -2 125 0 34 2 6 3 -63 3 -69 0 -97 -1 -62 -3z"/>
<path d="M2874 1535 c12 -9 40 -15 70 -14 49 1 49 1 16 9 -19 4 -51 10 -70 14
-33 5 -34 5 -16 -9z"/>
<path d="M4366 1175 c-3 -8 -3 -22 1 -31 8 -22 57 -14 61 10 7 32 -50 51 -62
21z"/>
<path d="M3505 1155 c-36 -35 -37 -97 -2 -130 l21 -20 -18 22 c-10 12 -16 33
-14 50 2 22 9 29 30 31 23 3 29 -2 34 -24 4 -15 2 -35 -5 -46 -14 -22 2 -24
23 -2 34 34 8 84 -45 84 -35 0 -37 13 -7 34 55 39 132 -1 132 -69 0 -47 -35
-80 -96 -90 -48 -8 -68 -20 -68 -41 0 -12 35 -14 193 -12 l192 1 -135 8 c-74
3 -154 7 -177 8 -47 1 -60 21 -14 21 41 0 93 19 114 42 10 13 17 37 17 63 0
36 -5 48 -31 69 -42 36 -110 36 -144 1z"/>
<path d="M3940 1068 c-7 -46 -14 -90 -16 -100 -5 -30 21 -51 60 -50 20 1 36
-2 36 -6 0 -8 160 -36 167 -29 3 4 43 209 43 224 0 2 -6 3 -14 3 -13 0 -20
-27 -42 -168 l-7 -43 -51 6 c-28 4 -55 11 -60 15 -8 8 1 89 21 193 4 20 2 27
-10 27 -15 0 -23 -27 -43 -135 -9 -55 -21 -75 -44 -75 -36 0 -42 33 -26 124
19 96 19 96 8 96 -5 0 -14 -37 -22 -82z"/>
<path d="M3180 1092 c0 -9 11 -58 25 -107 13 -49 21 -92 17 -96 -12 -10 -133
-41 -139 -35 -3 3 -18 49 -33 103 -18 65 -32 99 -42 101 -13 2 -10 -15 14
-105 16 -59 32 -111 36 -115 6 -6 185 37 200 47 2 2 -30 125 -54 208 -7 22
-24 22 -24 -1z"/>
<path d="M2815 1075 c-90 -32 -119 -129 -68 -228 32 -64 133 -87 199 -46 27
17 34 27 34 53 0 39 -26 66 -63 66 -56 0 -76 -62 -32 -105 l24 -25 -35 0 c-67
0 -124 84 -124 180 0 35 17 62 54 90 18 14 19 13 12 -5 -30 -72 41 -128 94
-75 27 27 25 56 -5 85 -28 29 -35 29 -90 10z m79 -38 c18 -49 -24 -86 -58 -52
-9 9 -16 26 -16 39 0 51 57 61 74 13z m56 -167 c10 -24 10 -33 0 -45 -27 -32
-70 -10 -70 35 0 32 7 40 35 40 16 0 26 -9 35 -30z"/>
<path d="M4305 1078 c-2 -7 -14 -51 -25 -98 -12 -47 -23 -94 -26 -105 -4 -16
-3 -17 5 -5 5 9 19 54 31 100 11 47 23 90 25 97 3 9 13 9 42 0 21 -6 39 -11
40 -12 1 -1 -11 -49 -26 -108 -18 -66 -26 -109 -20 -113 16 -9 19 -3 47 108
26 97 29 103 52 100 41 -4 16 8 -58 28 -85 24 -81 23 -87 8z"/>
<path d="M2502 1018 c-28 -28 2 -67 37 -48 25 13 28 45 5 54 -22 8 -28 8 -42
-6z"/>
<path d="M4512 982 c-50 -47 -67 -137 -32 -172 40 -40 110 -11 110 45 0 40
-36 68 -76 62 l-34 -6 17 31 c35 60 108 73 153 28 40 -40 10 -153 -48 -181
l-32 -15 90 -29 c50 -16 90 -32 90 -36 0 -3 -7 -25 -15 -48 -13 -39 -13 -42 2
-39 11 2 30 49 64 158 27 85 48 156 49 158 0 1 -7 2 -15 2 -10 0 -25 -33 -46
-102 -17 -57 -32 -104 -34 -105 -1 -2 -32 7 -69 20 -67 22 -67 23 -42 35 46
21 72 123 45 174 -13 25 -67 48 -113 48 -23 0 -43 -9 -64 -28z m33 -86 c16
-11 17 -19 9 -47 -8 -29 -14 -34 -39 -34 -27 0 -30 4 -33 35 -3 24 2 38 14 47
22 16 26 16 49 -1z"/>
<path d="M2630 936 c0 -2 16 -50 36 -106 19 -56 34 -103 32 -105 -5 -4 -131
-45 -139 -45 -4 0 -22 44 -39 98 -34 103 -44 120 -55 103 -6 -11 50 -198 65
-215 8 -8 200 51 200 62 0 3 -16 52 -36 109 -22 63 -42 103 -50 103 -8 0 -14
-2 -14 -4z"/>
<path d="M2315 833 c-30 -7 -65 -44 -65 -68 0 -12 11 -55 25 -95 14 -41 22
-77 17 -82 -4 -4 -21 -10 -37 -13 l-30 -6 -35 101 c-19 56 -37 103 -40 105 -3
2 -11 0 -18 -4 -11 -6 9 -77 59 -208 l8 -22 53 19 c33 12 57 15 63 9 5 -5 17
-9 27 -9 23 0 23 -11 -2 -43 -42 -53 -134 -58 -101 -6 10 17 10 20 0 17 -20
-7 -33 -34 -25 -53 5 -14 14 -16 46 -11 56 9 109 36 116 60 4 12 14 30 23 40
15 18 15 19 -15 13 -50 -10 -48 4 3 32 61 34 72 64 49 138 -13 40 -25 59 -49
74 -33 19 -37 20 -72 12z m63 -29 c52 -36 69 -127 32 -164 -25 -25 -71 -44
-80 -33 -13 15 -50 137 -50 165 0 43 56 62 98 32z"/>
<path d="M5138 788 c-12 -34 -21 -44 -45 -50 -53 -14 -64 -90 -19 -127 8 -7
32 -15 53 -18 44 -6 63 10 83 70 13 41 24 45 58 21 14 -10 22 -25 22 -45 0
-43 -17 -69 -56 -85 -32 -13 -41 -13 -105 6 -79 24 -107 23 -123 -2 -8 -13 -7
-21 3 -30 9 -9 15 -10 18 -2 15 43 24 45 105 22 95 -26 148 -16 173 32 30 58
13 101 -47 122 -30 11 -34 22 -18 63 10 27 18 28 63 10 9 -4 17 -3 17 2 0 8
-135 53 -159 53 -5 0 -16 -19 -23 -42z m78 -3 c-2 -7 -14 -44 -26 -83 -28 -97
-61 -118 -112 -74 -22 19 -23 51 -2 81 15 20 22 23 63 18 33 -4 40 -3 24 3
-26 11 -27 15 -12 58 10 29 12 30 40 20 18 -6 28 -16 25 -23z"/>
<path d="M5993 743 c-17 -6 -16 -38 1 -52 11 -9 20 -10 35 -1 44 23 10 72 -36
53z"/>
<path d="M1925 704 c-22 -9 -62 -20 -90 -25 -106 -19 -151 -97 -111 -193 25
-61 66 -75 109 -37 20 17 17 61 -4 88 -15 17 -64 17 -82 -2 -13 -12 -16 -12
-20 7 -14 51 53 128 111 128 19 0 21 -3 12 -19 -23 -43 -2 -140 37 -171 19
-15 30 -17 56 -9 42 12 57 34 57 83 0 52 -17 85 -57 112 -39 26 -33 34 23 34
92 0 146 -114 86 -182 -8 -10 -10 -18 -4 -18 6 0 20 12 31 26 46 59 13 164
-57 184 -46 13 -49 12 -97 -6z m10 -67 c61 -61 58 -157 -5 -157 -23 0 -35 7
-50 33 -31 50 -23 157 11 157 6 0 26 -15 44 -33z m-126 -121 c18 -22 10 -70
-12 -74 -22 -4 -57 25 -57 48 0 36 46 53 69 26z"/>
<path d="M5511 683 c-31 -119 -41 -163 -41 -179 0 -37 16 2 41 99 25 102 26
102 55 99 16 -2 33 -7 38 -12 6 -6 -1 -50 -17 -111 -15 -56 -25 -104 -22 -107
12 -13 33 11 39 45 12 65 16 73 41 73 59 0 84 -82 45 -145 -39 -63 -119 -70
-226 -21 -53 24 -81 54 -84 91 -6 57 2 86 31 120 39 44 32 57 -8 16 -31 -30
-43 -67 -43 -127 0 -51 57 -110 127 -130 78 -23 163 -23 197 -1 54 36 75 143
36 185 -11 11 -36 24 -56 28 -30 6 -35 10 -30 28 3 11 6 27 6 35 0 9 8 11 28
6 18 -4 24 -3 17 4 -11 10 -122 41 -149 41 -9 0 -19 -14 -25 -37z"/>
<path d="M5832 513 l3 -118 111 -3 c99 -2 113 0 137 18 51 40 45 156 -10 200
-33 26 -63 25 -97 -1 -24 -19 -26 -27 -26 -92 0 -107 -5 -117 -51 -117 l-39 0
0 115 c0 97 -2 115 -15 115 -13 0 -15 -17 -13 -117z m239 78 c25 -26 29 -37
29 -86 0 -72 -28 -105 -90 -105 l-40 0 1 53 c1 155 35 202 100 138z"/>
<path d="M1337 613 c-23 -6 -47 -54 -47 -93 0 -30 29 -70 51 -70 7 0 0 10 -15
21 -37 29 -33 73 7 77 21 3 29 -2 36 -20 5 -13 5 -33 0 -45 -9 -25 0 -30 19
-11 16 16 15 63 -1 76 -6 6 -28 12 -47 14 l-35 3 23 23 c31 31 85 30 117 -3
53 -52 18 -127 -70 -149 -46 -12 -77 -37 -63 -51 9 -9 378 6 378 16 0 4 -79 5
-175 2 -117 -4 -175 -3 -175 4 0 6 18 13 41 17 89 14 127 54 115 120 -12 62
-77 90 -159 69z"/>
</g>
</svg>
